<?xml version="1.0" standalone="no"?>
<!DOCTYPE svg PUBLIC "-//W3C//DTD SVG 1.1//EN" "http://www.w3.org/Graphics/SVG/1.1/DTD/svg11.dtd" >
<svg xmlns="http://www.w3.org/2000/svg" xmlns:xlink="http://www.w3.org/1999/xlink" version="1.1">
    <metadata></metadata>
    <defs>
        <font id="sf_monolight" horiz-adv-x="1266">
            <font-face units-per-em="2048" ascent="1638" descent="-410"/>
            <missing-glyph horiz-adv-x="500"/>
            <glyph horiz-adv-x="0"/>
            <glyph unicode="&#xd;" horiz-adv-x="0"/>
            <glyph unicode=" "/>
            <glyph unicode="!"
                   d="M512 114q0 53 35.5 90t85.5 37t85.5 -37t35.5 -90t-35.5 -90t-85.5 -37t-85.5 37t-35.5 90zM556 1443h155l-13 -994h-129z"/>
            <glyph unicode="&#x22;" d="M382 820v623h145v-623h-145zM740 820v623h147v-623h-147z"/>
            <glyph unicode="#"
                   d="M81 426l27 111h213l73 383h-214l24 110h214l82 413h114l-82 -413h322l83 413h114l-83 -413h212l-26 -110h-211l-74 -383h213l-25 -111h-212l-85 -426h-114l85 426h-323l-83 -426h-115l85 426h-214zM437 541h317l72 374h-318z"/>
            <glyph unicode="$"
                   d="M155 375h132q13 -117 95 -192.5t211 -89.5v594l-6 2q-206 53 -301 148t-95 248q0 164 108.5 267.5t293.5 118.5v113h114v-113q174 -16 281.5 -118t117.5 -263h-132q-13 109 -83.5 177t-183.5 82v-561l21 -6q215 -56 309 -150.5t94 -253.5q0 -171 -115 -281t-309 -125 v-113h-114v113q-192 15 -309 122.5t-129 280.5zM326 1085q0 -103 61.5 -164.5t205.5 -102.5v532q-125 -14 -196 -84t-71 -181zM707 93q131 15 210 92t79 193q0 108 -68 174t-221 106v-565z"/>
            <glyph unicode="%"
                   d="M0 0v154l1266 1289v-154zM0 1039v126q0 134 71.5 212.5t195.5 78.5t195.5 -78.5t71.5 -212.5v-126q0 -134 -71.5 -212.5t-195.5 -78.5t-195.5 78.5t-71.5 212.5zM111 1069q0 -216 156 -216t156 216v66q0 216 -156 216t-156 -216v-66zM732 278v126q0 134 71.5 212.5 t195.5 78.5t195.5 -78.5t71.5 -212.5v-126q0 -134 -71.5 -212.5t-195.5 -78.5t-195.5 78.5t-71.5 212.5zM843 308q0 -216 156 -216t156 216v66q0 216 -156 216t-156 -216v-66z"/>
            <glyph unicode="&#x26;"
                   d="M84 375q0 233 269 415l43 29q-162 205 -162 355q0 133 86 216t223 83t223 -83t86 -216q0 -111 -60.5 -195t-215.5 -188l337 -440q60 153 67 371h119q-10 -272 -107 -460l216 -262h-164l-122 162q-175 -187 -411 -187q-189 0 -308 111.5t-119 288.5zM213 375 q0 -127 81 -205t214 -78q106 0 194.5 40t146.5 114l-379 487l-43 -28q-111 -72 -162.5 -151t-51.5 -179zM359 1174q0 -67 32.5 -135t112.5 -169q130 88 177.5 151.5t47.5 152.5q0 81 -53 135t-132 54t-132 -54t-53 -135z"/>
            <glyph unicode="'" d="M561 820v623h145v-623h-145z"/>
            <glyph unicode="("
                   d="M439 722q0 492 292 828h128q-152 -206 -221.5 -403.5t-69.5 -424.5t69.5 -424.5t221.5 -403.5h-128q-292 336 -292 828z"/>
            <glyph unicode=")"
                   d="M407 -106q152 206 221.5 403.5t69.5 424.5t-69.5 424.5t-221.5 403.5h128q292 -336 292 -828t-292 -828h-128z"/>
            <glyph unicode="*"
                   d="M104 399l434 240l-434 240l57 98l425 -256l-10 496h114l-9 -496l424 256l57 -98l-434 -240l434 -240l-57 -98l-424 256l9 -496h-114l9 496l-424 -256z"/>
            <glyph unicode="+" d="M104 581v116h470v470h118v-470h470v-116h-470v-468h-118v468h-470z"/>
            <glyph unicode="," d="M418 -335l129 696h197l-178 -696h-148z"/>
            <glyph unicode="-" d="M104 581v116h1058v-116h-1058z"/>
            <glyph unicode="." d="M467 166q0 68 49 117t117 49t117 -49t49 -117t-49 -117t-117 -49t-117 49t-49 117z"/>
            <glyph unicode="/" d="M215 -99l711 1641h125l-711 -1641h-125z"/>
            <glyph unicode="0"
                   d="M168 721q0 366 120 560.5t346 194.5t346 -194.5t120 -560.5t-120 -560.5t-346 -194.5t-346 194.5t-120 560.5zM305 721q0 -118 12 -214l610 558q-74 291 -293 291q-162 0 -245.5 -161t-83.5 -474zM342 373q74 -287 292 -287q162 0 245.5 161t83.5 474q0 119 -12 217z"/>
            <glyph unicode="1" d="M174 1004v152l444 287h135v-1325h419v-118h-994v118h439v1162h-15z"/>
            <glyph unicode="2"
                   d="M194 1044v6q0 184 121.5 303.5t307.5 119.5q190 0 308.5 -110.5t118.5 -287.5q0 -110 -59 -217t-228 -301l-361 -417v-16h672v-124h-874v87l495 578q133 157 175.5 236.5t42.5 171.5q0 128 -80 204t-213 76q-132 0 -211.5 -82.5t-79.5 -220.5v-6h-135z"/>
            <glyph unicode="3"
                   d="M151 369h131q13 -127 107.5 -203t237.5 -76q157 0 248.5 78.5t91.5 213.5q0 140 -94 222t-254 82h-162v118h153q126 0 207.5 79.5t81.5 202.5q0 120 -78.5 193.5t-206.5 73.5q-127 0 -206 -72t-92 -198h-137q15 181 133.5 285.5t308.5 104.5q184 0 303.5 -104.5 t119.5 -265.5q0 -131 -63.5 -220t-178.5 -119v-15q142 -20 223 -117t81 -247q0 -180 -134.5 -297.5t-340.5 -117.5t-338 110t-142 289z"/>
            <glyph unicode="4"
                   d="M160 319v105l509 1019h140l-505 -997v-10h518v434h125v-429h229v-122h-231v-319h-123v319h-662z"/>
            <glyph unicode="5"
                   d="M163 373h131q12 -124 106 -203t231 -79q148 0 238.5 98t90.5 259q0 162 -91 262.5t-238 100.5q-104 0 -187.5 -46t-127.5 -128h-127l75 806h754v-123h-647l-43 -510h15q113 126 299 126q200 0 327 -135.5t127 -349.5t-132 -347t-345 -133q-192 0 -317.5 110.5 t-138.5 291.5z"/>
            <glyph unicode="6"
                   d="M165 445q0 124 45 245t147 270l330 483h159l-405 -568q-37 -53 -41 -62l13 -10q29 43 100.5 74.5t141.5 31.5q194 0 321.5 -129t127.5 -326q0 -212 -132.5 -348t-339.5 -136q-202 0 -334.5 135t-132.5 340zM296 446q0 -152 97.5 -255t241.5 -103t241.5 103t97.5 255 t-97.5 255t-241.5 103t-241.5 -103t-97.5 -255z"/>
            <glyph unicode="7" d="M170 1320v123h940v-128l-661 -1315h-146l667 1309v11h-800z"/>
            <glyph unicode="8"
                   d="M153 385q0 135 78 236.5t208 132.5v15q-105 32 -166.5 119.5t-61.5 205.5q0 168 120 275t308 107t308 -107t120 -275q0 -119 -61 -206t-168 -119v-15q127 -25 207 -128.5t80 -240.5q0 -184 -136 -301t-350 -117t-350 117t-136 301zM287 393q0 -134 98 -218.5t254 -84.5 t254 84.5t98 218.5t-98 218.5t-254 84.5t-254 -84.5t-98 -218.5zM344 1084q0 -120 81 -193t214 -73t214 73t81 193t-81 193t-214 73t-214 -73t-81 -193z"/>
            <glyph unicode="9"
                   d="M159 989q0 212 132.5 348t339.5 136q202 0 334.5 -135t132.5 -340q0 -120 -46 -240t-151 -275l-330 -483h-159l405 568q32 45 42 62l-13 10q-29 -44 -99 -75t-139 -31q-194 0 -321.5 129t-127.5 326zM289 997q0 -152 97.5 -255t241.5 -103t241.5 103t97.5 255t-97.5 255 t-241.5 103t-241.5 -103t-97.5 -255z"/>
            <glyph unicode=":"
                   d="M467 166q0 68 49 117t117 49t117 -49t49 -117t-49 -117t-117 -49t-117 49t-49 117zM467 939q0 68 49 117t117 49t117 -49t49 -117t-49 -117t-117 -49t-117 49t-49 117z"/>
            <glyph unicode=";"
                   d="M418 -335l129 696h197l-178 -696h-148zM467 939q0 68 49 117t117 49t117 -49t49 -117t-49 -117t-117 -49t-117 49t-49 117z"/>
            <glyph unicode="&#x3c;" d="M216 587v104l833 513v-136l-706 -421v-16l706 -421v-136z"/>
            <glyph unicode="=" d="M104 366v115h1058v-115h-1058zM104 797v115h1058v-115h-1058z"/>
            <glyph unicode="&#x3e;" d="M216 74v136l706 421v16l-706 421v136l833 -513v-104z"/>
            <glyph unicode="?"
                   d="M231 1079q11 173 121 273.5t287 100.5q171 0 283.5 -99.5t112.5 -250.5q0 -222 -202 -347q-89 -55 -122.5 -107t-33.5 -136v-64h-141v102q0 87 49.5 157.5t152.5 134.5q83 52 118.5 110t35.5 141q0 106 -71 172.5t-185 66.5q-118 0 -190 -67.5t-82 -186.5h-133zM492 114 q0 53 35.5 90t85.5 37t85.5 -37t35.5 -90t-35.5 -90t-85.5 -37t-85.5 37t-35.5 90z"/>
            <glyph unicode="@"
                   d="M120 532v214q0 350 136.5 538.5t390.5 188.5q244 0 379 -155.5t135 -435.5v-310q0 -119 -60.5 -186t-166.5 -67h-246q-55 0 -87 30t-32 83v397q0 52 23.5 82.5t64.5 30.5t64.5 -30.5t23.5 -82.5v-405h174q73 0 102.5 33t29.5 115v294q0 242 -104 371.5t-300 129.5 q-211 0 -313 -156.5t-102 -479.5v-175q0 -328 109 -486.5t336 -158.5q67 0 132.5 11.5t97.5 28.5v-105q-79 -41 -250 -41q-260 0 -398.5 187.5t-138.5 539.5z"/>
            <glyph unicode="A"
                   d="M90 0l476 1443h134l476 -1443h-140l-141 442h-524l-141 -442h-140zM408 560h450l-224 704h-2z"/>
            <glyph unicode="B"
                   d="M204 0v1443h444q197 0 308 -94.5t111 -261.5q0 -121 -68 -209.5t-176 -108.5v-13q146 -16 232 -113t86 -244q0 -189 -129.5 -294t-362.5 -105h-445zM341 121h289q181 0 276 73t95 212t-96 210.5t-282 71.5h-282v-567zM341 807h248q166 0 253 66t87 192q0 122 -80.5 189.5 t-226.5 67.5h-281v-515z"/>
            <glyph unicode="C"
                   d="M142 602v239q0 301 137.5 466.5t386.5 165.5q220 0 350 -126t135 -345h-137q-6 154 -102.5 249t-245.5 95q-190 0 -288.5 -128.5t-98.5 -376.5v-239q0 -248 98.5 -376.5t288.5 -128.5q157 0 250 84t97 230h137q0 -193 -136 -317t-348 -124q-249 0 -386.5 165.5 t-137.5 466.5z"/>
            <glyph unicode="D"
                   d="M174 0v1443h383q615 0 615 -722q0 -721 -615 -721h-383zM311 124h238q245 0 364 146.5t119 450.5t-119 451t-364 147h-238v-1195z"/>
            <glyph unicode="E" d="M242 0v1443h830v-124h-693v-519h656v-122h-656v-554h693v-124h-830z"/>
            <glyph unicode="F" d="M268 0v1443h829v-124h-692v-542h634v-122h-634v-655h-137z"/>
            <glyph unicode="G"
                   d="M134 602v239q0 301 137.5 466.5t386.5 165.5q220 0 349.5 -126t134.5 -345h-137q-6 154 -102 249t-245 95q-190 0 -288.5 -128.5t-98.5 -376.5v-239q0 -248 98.5 -376.5t288.5 -128.5q160 0 253 89t93 242v169h-356v122h493v-310q0 -193 -135.5 -316t-347.5 -123 q-249 0 -386.5 165.5t-137.5 466.5z"/>
            <glyph unicode="H" d="M166 0v1443h137v-642h660v642h137v-1443h-137v677h-660v-677h-137z"/>
            <glyph unicode="I" d="M275 0v118h290v1207h-290v118h716v-118h-290v-1207h290v-118h-716z"/>
            <glyph unicode="J"
                   d="M189 330h136q4 -103 77.5 -168t186.5 -65q131 0 202.5 78.5t71.5 222.5v927h-488v118h625v-1050q0 -197 -109.5 -310t-300.5 -113q-176 0 -288 100.5t-113 259.5z"/>
            <glyph unicode="K"
                   d="M238 0v1443h137v-746h12l613 746h171l-547 -638l606 -805h-177l-520 700l-158 -185v-515h-137z"/>
            <glyph unicode="L" d="M275 0v1443h136v-1319h703v-124h-839z"/>
            <glyph unicode="M"
                   d="M104 0v1443h157l367 -924h11l365 924h158v-1443h-128v1177h-10l-332 -838h-118l-332 838h-10v-1177h-128z"/>
            <glyph unicode="N" d="M162 0v1443h139l662 -1198h13v1198h128v-1443h-136l-665 1199h-13v-1199h-128z"/>
            <glyph unicode="O"
                   d="M114 602v239q0 297 138.5 464.5t380.5 167.5t380.5 -167.5t138.5 -464.5v-239q0 -297 -138.5 -464.5t-380.5 -167.5t-380.5 167.5t-138.5 464.5zM251 602q0 -239 102 -372t280 -133t280 133t102 372v239q0 239 -102 372t-280 133t-280 -133t-102 -372v-239z"/>
            <glyph unicode="P"
                   d="M216 0v1443h462q203 0 327.5 -123.5t124.5 -325.5t-124.5 -325.5t-327.5 -123.5h-325v-545h-137zM353 667h292q164 0 255 86t91 241t-91 241t-255 86h-292v-654z"/>
            <glyph unicode="Q"
                   d="M114 602v239q0 297 138.5 464.5t380.5 167.5t380.5 -167.5t138.5 -464.5v-239q0 -331 -170 -499l180 -272h-157l-129 195q-106 -56 -243 -56q-242 0 -380.5 167.5t-138.5 464.5zM251 602q0 -239 102 -372t280 -133q97 0 170 39l-214 325h157l159 -241q110 133 110 382 v239q0 239 -102 372t-280 133t-280 -133t-102 -372v-239z"/>
            <glyph unicode="R"
                   d="M196 0v1443h470q206 0 327.5 -114t121.5 -308q0 -143 -74.5 -250.5t-199.5 -144.5l296 -626h-154l-274 595h-379v-595h-134zM330 713h317q161 0 246.5 78t85.5 224q0 147 -83.5 226.5t-238.5 79.5h-327v-608z"/>
            <glyph unicode="S"
                   d="M155 375h137q14 -130 110 -205t248 -75q155 0 248 77.5t93 205.5q0 104 -71.5 170.5t-225.5 106.5l-113 29q-203 53 -296.5 149.5t-93.5 251.5q0 176 125 282t334 106q197 0 321.5 -104.5t134.5 -278.5h-137q-15 122 -99 190t-220 68q-150 0 -234.5 -69.5t-84.5 -193.5 q0 -101 68 -164.5t218 -102.5l117 -31q211 -55 304 -151t93 -258q0 -184 -131.5 -296t-349.5 -112q-215 0 -348.5 109t-146.5 296z"/>
            <glyph unicode="T" d="M121 1319v124h1024v-124h-444v-1319h-136v1319h-444z"/>
            <glyph unicode="U"
                   d="M135 496v947h136v-938q0 -193 95.5 -301t266.5 -108t266.5 108t95.5 301v938h136v-947q0 -246 -132.5 -386t-365.5 -140t-365.5 140t-132.5 386z"/>
            <glyph unicode="V" d="M90 1443h139l403 -1264h2l403 1264h139l-476 -1443h-134z"/>
            <glyph unicode="W"
                   d="M0 1443h133l196 -1230h9l227 900h136l227 -900h9l196 1230h133l-257 -1443h-135l-236 915h-10l-236 -915h-135z"/>
            <glyph unicode="X"
                   d="M86 0l469 724l-465 719h158l389 -609h5l393 609h145l-473 -724l465 -719h-157l-387 606h-5l-392 -606h-145z"/>
            <glyph unicode="Y" d="M77 1443h157l393 -680h12l393 680h157l-488 -819v-624h-136v624z"/>
            <glyph unicode="Z" d="M138 0v99l795 1208v12h-766v124h943v-100l-792 -1207v-12h804v-124h-984z"/>
            <glyph unicode="[" d="M388 -99v1641h490v-99h-364v-1443h364v-99h-490z"/>
            <glyph unicode="\" d="M215 1542h125l711 -1641h-125z"/>
            <glyph unicode="]" d="M388 0h364v1443h-364v99h490v-1641h-490v99z"/>
            <glyph unicode="^" d="M271 747l280 696h163l280 -696h-124l-229 597h-17l-229 -597h-124z"/>
            <glyph unicode="_" d="M114 -190h1038v-102h-1038v102z"/>
            <glyph unicode="`" d="M428 1628h172l238 -332h-151z"/>
            <glyph unicode="a"
                   d="M194 304q0 142 97 223.5t276 89.5l312 14v102q0 116 -65 177.5t-189 61.5q-102 0 -170 -42t-90 -120h-130q15 121 124.5 198.5t265.5 77.5q183 0 284.5 -91.5t101.5 -255.5v-740h-126v170h-14q-38 -91 -124.5 -139.5t-208.5 -48.5q-155 0 -249.5 88.5t-94.5 234.5z M329 304q0 -96 64.5 -151.5t176.5 -55.5q131 0 220 79.5t89 195.5v150l-303 -13q-121 -5 -184 -57.5t-63 -147.5z"/>
            <glyph unicode="b"
                   d="M207 0v1506h131v-588h18q38 85 123 131t202 46q187 0 303.5 -125.5t116.5 -327.5v-207q0 -202 -116.5 -327.5t-303.5 -125.5q-235 0 -331 173h-18v-155h-125zM335 466q0 -167 86.5 -267t230.5 -100q145 0 231.5 100t86.5 267v144q0 167 -86.5 267t-231.5 100 q-144 0 -230.5 -100t-86.5 -267v-144z"/>
            <glyph unicode="c"
                   d="M199 462v153q0 225 120.5 352.5t332.5 127.5q167 0 280.5 -91.5t134.5 -243.5h-130q-16 96 -97 156.5t-191 60.5q-154 0 -236.5 -99.5t-82.5 -284.5v-109q0 -185 82.5 -284.5t236.5 -99.5q110 0 191 60.5t97 156.5h130q-21 -152 -134.5 -243.5t-280.5 -91.5 q-212 0 -332.5 127.5t-120.5 352.5z"/>
            <glyph unicode="d"
                   d="M165 435v207q0 202 116.5 327.5t303.5 125.5q117 0 202 -46t123 -131h18v588h131v-1506h-125v155h-18q-96 -173 -331 -173q-187 0 -303.5 125.5t-116.5 327.5zM296 466q0 -167 86.5 -267t231.5 -100q144 0 230.5 100t86.5 267v144q0 167 -86.5 267t-230.5 100 q-145 0 -231.5 -100t-86.5 -267v-144z"/>
            <glyph unicode="e"
                   d="M201 468v157q0 213 121.5 341.5t321.5 128.5q209 0 323 -132.5t114 -373.5v-85h-749v-37q0 -169 88.5 -268.5t238.5 -99.5q110 0 186 44t101 123h130q-27 -129 -140.5 -206.5t-276.5 -77.5q-217 0 -337.5 128t-120.5 358zM332 612h616q0 172 -81 269.5t-223 97.5 q-146 0 -229 -97.5t-83 -269.5z"/>
            <glyph unicode="f"
                   d="M194 966v111h290v124q0 143 99 217.5t291 74.5q146 0 232 -14v-110q-98 12 -232 12q-128 0 -193.5 -46.5t-65.5 -137.5v-120h491v-111h-491v-966h-131v966h-290z"/>
            <glyph unicode="g"
                   d="M155 435v207q0 202 116.5 327.5t303.5 125.5q117 0 202 -46t123 -131h18v159h131v-1077q0 -191 -118 -297.5t-330 -106.5q-178 0 -291.5 74.5t-131.5 203.5h131q18 -74 98.5 -118.5t195.5 -44.5q152 0 233.5 77t81.5 219v148h-18q-39 -83 -124 -128t-201 -45 q-187 0 -303.5 125.5t-116.5 327.5zM286 466q0 -167 86.5 -267t231.5 -100q144 0 230.5 100t86.5 267v144q0 167 -86.5 267t-230.5 100q-145 0 -231.5 -100t-86.5 -267v-144z"/>
            <glyph unicode="h"
                   d="M207 0v1506h125v-623h13q44 102 135.5 157t216.5 55q176 0 269 -101.5t93 -293.5v-700h-131v667q0 158 -65 234t-201 76q-145 0 -234.5 -93.5t-89.5 -243.5v-640h-131z"/>
            <glyph unicode="i"
                   d="M221 971v106h512v-971h369v-106h-879v106h379v865h-381zM529 1486q0 51 36.5 87.5t87.5 36.5t87.5 -36.5t36.5 -87.5t-36.5 -87.5t-87.5 -36.5t-87.5 36.5t-36.5 87.5z"/>
            <glyph unicode="j"
                   d="M191 -194q103 -10 252 -10q169 0 229 46t60 176v953h-511v106h642v-1089q0 -160 -98 -231.5t-319 -71.5q-137 0 -255 11v110zM659 1486q0 51 36.5 87.5t87.5 36.5t87.5 -36.5t36.5 -87.5t-36.5 -87.5t-87.5 -36.5t-87.5 36.5t-36.5 87.5z"/>
            <glyph unicode="k"
                   d="M295 0v1506h131v-936h12l506 507h166l-426 -417l456 -660h-158l-390 570l-166 -162v-408h-131z"/>
            <glyph unicode="l" d="M221 1400v106h512v-1400h369v-106h-879v106h379v1294h-381z"/>
            <glyph unicode="m"
                   d="M123 0v1077h119v-144h14q21 75 76.5 118.5t129.5 43.5q77 0 129.5 -42.5t69.5 -119.5h14q22 74 85 118t146 44q237 0 237 -322v-773h-123v743q0 234 -153 234q-80 0 -125 -68t-45 -188v-721h-123v744q0 233 -154 233q-81 0 -127.5 -68.5t-46.5 -187.5v-721h-123z"/>
            <glyph unicode="n"
                   d="M207 0v1077h125v-194h13q44 102 135.5 157t216.5 55q176 0 269 -101.5t93 -293.5v-700h-131v667q0 158 -65 234t-201 76q-145 0 -234.5 -93.5t-89.5 -243.5v-640h-131z"/>
            <glyph unicode="o"
                   d="M177 458v160q0 218 124 347t332 129t332 -129t124 -347v-160q0 -218 -124 -347t-332 -129t-332 129t-124 347zM308 475q0 -174 87.5 -275t237.5 -101t237.5 101t87.5 275v126q0 174 -87.5 275t-237.5 101t-237.5 -101t-87.5 -275v-126z"/>
            <glyph unicode="p"
                   d="M207 -365v1442h125v-155h18q96 173 331 173q187 0 303.5 -125.5t116.5 -327.5v-207q0 -202 -116.5 -327.5t-303.5 -125.5q-117 0 -202 46t-123 131h-18v-524h-131zM335 466q0 -167 86.5 -267t230.5 -100q145 0 231.5 100t86.5 267v144q0 167 -86.5 267t-231.5 100 q-144 0 -230.5 -100t-86.5 -267v-144z"/>
            <glyph unicode="q"
                   d="M165 435v207q0 202 116.5 327.5t303.5 125.5q235 0 331 -173h18v155h125v-1442h-131v524h-18q-38 -85 -123 -131t-202 -46q-187 0 -303.5 125.5t-116.5 327.5zM296 466q0 -167 86.5 -267t231.5 -100q144 0 230.5 100t86.5 267v144q0 167 -86.5 267t-230.5 100 q-145 0 -231.5 -100t-86.5 -267v-144z"/>
            <glyph unicode="r"
                   d="M207 971v106h372v-274h14q28 144 129.5 222.5t259.5 78.5q103 0 157 -24v-143q-83 30 -177 30q-174 0 -277 -131t-103 -352v-378h342v-106h-695v106h222v865h-244z"/>
            <glyph unicode="s"
                   d="M224 270h136q21 -83 95.5 -129.5t186.5 -46.5q121 0 192.5 52.5t71.5 141.5q0 74 -47 116.5t-157 68.5l-159 38q-286 67 -286 286q0 133 106 215.5t276 82.5q158 0 262 -75.5t121 -203.5h-129q-17 79 -86 124.5t-172 45.5q-112 0 -179 -50t-67 -134q0 -71 48 -113 t158 -67l146 -34q155 -37 228 -107.5t73 -184.5q0 -142 -111 -228t-295 -86q-175 0 -286 77.5t-126 210.5z"/>
            <glyph unicode="t"
                   d="M174 966v111h290v280h131v-280h451v-111h-451v-651q0 -100 67.5 -152.5t195.5 -52.5q132 0 188 8v-112q-64 -12 -195 -12q-387 0 -387 317v655h-290z"/>
            <glyph unicode="u"
                   d="M207 377v700h131v-667q0 -158 65 -234t201 -76q145 0 234.5 93.5t89.5 243.5v640h131v-1077h-125v194h-13q-44 -102 -135.5 -157t-216.5 -55q-176 0 -269 101.5t-93 293.5z"/>
            <glyph unicode="v" d="M161 1077h140l326 -934h12l325 934h141l-402 -1077h-140z"/>
            <glyph unicode="w"
                   d="M57 1077h130l171 -914h12l196 914h134l196 -914h12l171 914h130l-238 -1077h-135l-196 894h-13l-197 -894h-135z"/>
            <glyph unicode="x"
                   d="M179 1077h158l293 -430h12l291 430h151l-378 -530l382 -547h-157l-293 440h-12l-294 -440h-150l380 542z"/>
            <glyph unicode="y"
                   d="M159 1077h142l326 -934h12l325 934h140l-419 -1129q-72 -194 -144 -261.5t-204 -67.5q-27 0 -61 4v114q20 -4 59 -4q74 0 120 43t86 150l22 67z"/>
            <glyph unicode="z" d="M224 0v100l660 854v12h-659v111h816v-101l-658 -853v-12h659v-111h-818z"/>
            <glyph unicode="{"
                   d="M253 654v135q172 -21 254.5 41t82.5 184v225q0 174 63 238.5t233 64.5h127v-99h-114q-115 0 -149 -40t-34 -174v-262q0 -109 -81.5 -173t-236.5 -65v-15q155 -1 236.5 -65t81.5 -173v-262q0 -134 34 -174t149 -40h114v-99h-127q-170 0 -233 64.5t-63 238.5v225 q0 122 -82.5 184t-254.5 41z"/>
            <glyph unicode="|" d="M576 -483v2025h114v-2025h-114z"/>
            <glyph unicode="}"
                   d="M253 0h114q115 0 149 40t34 174v262q0 109 81.5 173t236.5 65v15q-155 1 -236.5 65t-81.5 173v262q0 134 -34 174t-149 40h-114v99h127q170 0 233 -64.5t63 -238.5v-225q0 -122 82.5 -184t254.5 -41v-135q-172 21 -254.5 -41t-82.5 -184v-225q0 -174 -63 -238.5 t-233 -64.5h-127v99z"/>
            <glyph unicode="~"
                   d="M149 572v10q0 133 75 215t197 82q73 0 132 -28.5t123 -93.5q56 -61 94 -85t78 -24q60 0 95 46.5t41 132.5h132v-10q0 -133 -74 -214.5t-196 -81.5q-73 0 -132.5 28.5t-122.5 93.5q-55 60 -92 84t-72 24q-130 0 -144 -179h-134z"/>
            <glyph unicode="&#xa0;"/>
            <glyph unicode="&#xa2;"
                   d="M214 636v198q0 190 97 308.5t268 140.5v160h145v-161q131 -19 218.5 -98t98.5 -191h-132q-16 80 -88.5 131.5t-168.5 51.5q-141 0 -223 -95t-82 -258v-180q0 -160 81 -250t224 -90q99 0 175 46.5t90 115.5h135q-4 -98 -99.5 -177.5t-228.5 -99.5v-165h-145v164 q-171 22 -268 140.5t-97 308.5z"/>
            <glyph unicode="&#xa3;"
                   d="M162 667v115h223q-35 100 -49 165t-14 130q0 188 123 293.5t341 105.5q78 0 125 -8.5t131 -38.5v-125q-71 28 -127 38.5t-131 10.5q-158 0 -240 -70t-82 -206q0 -66 11.5 -119t52.5 -176h450v-115h-412q27 -99 27 -184q0 -107 -48.5 -199.5t-136.5 -153.5v-15h735v-115 h-974v115q125 34 206 135.5t81 223.5q0 99 -28 193h-264z"/>
            <glyph unicode="&#xa5;"
                   d="M77 1443h157l393 -680h12l393 680h157l-431 -723h215v-122h-272v-180h272v-122h-272v-296h-136v296h-271v122h271v180h-271v122h214z"/>
            <glyph unicode="&#xa8;"
                   d="M336 1437q0 43 32 75t74 32t74 -32t32 -75t-32 -75t-74 -32t-74 32t-32 75zM718 1437q0 43 32 75t74 32t74 -32t32 -75t-32 -75t-74 -32t-74 32t-32 75z"/>
            <glyph unicode="&#xa9;"
                   d="M91 721q0 152 72 278.5t196.5 198.5t273.5 72t273.5 -72t196.5 -198.5t72 -278.5t-72 -278.5t-196.5 -198.5t-273.5 -72t-273.5 72t-196.5 198.5t-72 278.5zM197 721q0 -189 126 -320t310 -131t310 131t126 320t-126 320t-310 131t-310 -131t-126 -320zM385 722 q0 134 70.5 212t189.5 78q89 0 152.5 -53.5t77.5 -139.5h-109q-29 90 -120 90q-70 0 -109.5 -50.5t-39.5 -136.5t39.5 -136.5t109.5 -50.5q46 0 78 22.5t42 61.5h109q-13 -82 -77 -134.5t-153 -52.5q-119 0 -189.5 78t-70.5 212z"/>
            <glyph unicode="&#xab;"
                   d="M155 638v2l353 421h145l-353 -421v-2l353 -421h-145zM608 638v2l353 421h145l-353 -421v-2l353 -421h-145z"/>
            <glyph unicode="&#xad;" d="M104 581v116h1058v-116h-1058z"/>
            <glyph unicode="&#xae;"
                   d="M91 991q0 152 71.5 278t196 198.5t274.5 72.5t274.5 -72.5t196 -198.5t71.5 -278t-71.5 -278t-196 -198.5t-274.5 -72.5t-274.5 72.5t-196 198.5t-71.5 278zM197 991q0 -190 126.5 -320.5t309.5 -130.5t309.5 130.5t126.5 320.5t-126.5 320.5t-309.5 130.5t-309.5 -130.5 t-126.5 -320.5zM421 722v544h256q85 0 134 -44.5t49 -122.5q0 -58 -32 -101.5t-88 -61.5l147 -214h-123l-138 203h-105v-203h-100zM521 1010h135q45 0 70 22.5t25 62.5q0 37 -25 57.5t-70 20.5h-135v-163z"/>
            <glyph unicode="&#xb4;" d="M428 1296l238 332h172l-259 -332h-151z"/>
            <glyph unicode="&#xb8;"
                   d="M448 -369q48 -14 121 -14q56 0 86.5 20.5t30.5 57.5q0 38 -35 54t-116 16h-57v71l64 164h117l-55 -144q98 2 150.5 -39t52.5 -119q0 -82 -63.5 -132t-166.5 -50q-66 0 -129 18v97z"/>
            <glyph unicode="&#xbb;"
                   d="M155 217l353 421v2l-353 421h145l353 -421v-2l-353 -421h-145zM608 217l353 421v2l-353 421h145l353 -421v-2l-353 -421h-145z"/>
            <glyph unicode="&#x2c6;" d="M273 1286l276 335h168l276 -335h-170l-183 235h-14l-183 -235h-170z"/>
            <glyph unicode="&#x2da;"
                   d="M412 1482q0 94 64.5 160t156.5 66t156.5 -66t64.5 -160t-64.5 -160t-156.5 -66t-156.5 66t-64.5 160zM509 1482q0 -56 35.5 -93.5t88.5 -37.5t88.5 37.5t35.5 93.5t-35.5 93.5t-88.5 37.5t-88.5 -37.5t-35.5 -93.5z"/>
            <glyph unicode="&#x2dc;"
                   d="M275 1270q0 133 56.5 206t159.5 73q54 0 99.5 -25.5t71.5 -55.5t57 -55.5t60 -25.5q48 0 68.5 38t20.5 126h123q0 -133 -57 -206.5t-159 -73.5q-44 0 -82 17t-63.5 41t-48 48t-46.5 41t-48 17q-48 0 -68.5 -38t-20.5 -127h-123z"/>
            <glyph unicode="&#x400;"
                   d="M242 0v1443h830v-124h-693v-519h656v-122h-656v-554h693v-124h-830zM277 1914h174l310 -297h-158z"/>
            <glyph unicode="&#x401;"
                   d="M242 0v1443h830v-124h-693v-519h656v-122h-656v-554h693v-124h-830zM360 1773q0 43 32 75t74 32t74 -32t32 -75t-32 -75t-74 -32t-74 32t-32 75zM742 1773q0 43 32 75t74 32t74 -32t32 -75t-32 -75t-74 -32t-74 32t-32 75z"/>
            <glyph unicode="&#x402;"
                   d="M0 1320v123h942v-123h-403v-547h12q117 117 308 117q181 0 290 -125t109 -332q0 -202 -100.5 -324.5t-266.5 -122.5q-72 0 -105 15v123q29 -13 100 -13q107 0 171 87t64 234q0 152 -75 243t-200 91q-98 0 -177.5 -42t-129.5 -106v-618h-136v1320h-403z"/>
            <glyph unicode="&#x403;"
                   d="M92 0v118h295v1207h-295v118h1138v-403h-128v285h-579v-1207h345v-118h-776zM567 1617l310 297h174l-326 -297h-158z"/>
            <glyph unicode="&#x404;"
                   d="M142 602v239q0 301 137.5 466.5t386.5 165.5q220 0 350 -126t135 -345h-137q-6 154 -102.5 249t-245.5 95q-190 0 -288.5 -128.5t-98.5 -376.5v-40h552v-124h-552v-75q0 -248 98.5 -376.5t288.5 -128.5q157 0 250 84t97 230h137q0 -193 -136 -317t-348 -124 q-249 0 -386.5 165.5t-137.5 466.5z"/>
            <glyph unicode="&#x405;"
                   d="M155 375h137q14 -130 110 -205t248 -75q155 0 248 77.5t93 205.5q0 104 -71.5 170.5t-225.5 106.5l-113 29q-203 53 -296.5 149.5t-93.5 251.5q0 176 125 282t334 106q197 0 321.5 -104.5t134.5 -278.5h-137q-15 122 -99 190t-220 68q-150 0 -234.5 -69.5t-84.5 -193.5 q0 -101 68 -164.5t218 -102.5l117 -31q211 -55 304 -151t93 -258q0 -184 -131.5 -296t-349.5 -112q-215 0 -348.5 109t-146.5 296z"/>
            <glyph unicode="&#x406;" d="M275 0v118h290v1207h-290v118h716v-118h-290v-1207h290v-118h-716z"/>
            <glyph unicode="&#x407;"
                   d="M275 0v118h290v1207h-290v118h716v-118h-290v-1207h290v-118h-716zM336 1773q0 43 32 75t74 32t74 -32t32 -75t-32 -75t-74 -32t-74 32t-32 75zM718 1773q0 43 32 75t74 32t74 -32t32 -75t-32 -75t-74 -32t-74 32t-32 75z"/>
            <glyph unicode="&#x408;"
                   d="M189 330h136q4 -103 77.5 -168t186.5 -65q131 0 202.5 78.5t71.5 222.5v927h-488v118h625v-1050q0 -197 -109.5 -310t-300.5 -113q-176 0 -288 100.5t-113 259.5z"/>
            <glyph unicode="&#x409;"
                   d="M0 1v123q23 -7 54 -7q71 0 104.5 91t42.5 309l38 926h510v-559h158q160 0 259.5 -122.5t99.5 -319.5t-99.5 -319.5t-259.5 -122.5h-295v1319h-248l-35 -809q-12 -273 -73.5 -396t-186.5 -123q-43 0 -69 10zM749 123h125q119 0 185.5 84t66.5 235t-66.5 235t-185.5 84 h-125v-638z"/>
            <glyph unicode="&#x40a;"
                   d="M105 0v1443h130v-648h367v648h137v-648h131q160 0 258 -106.5t98 -279.5q0 -183 -97 -296t-254 -113h-273v677h-367v-677h-130zM739 117h105q112 0 177.5 78.5t65.5 213.5q0 126 -64 197t-179 71h-105v-560z"/>
            <glyph unicode="&#x40b;"
                   d="M0 1319v124h874v-124h-369v-546h12q117 117 308 117q188 0 287.5 -109t99.5 -308v-473h-137v462q0 145 -69 224.5t-207 79.5q-93 0 -168.5 -42t-125.5 -106v-618h-136v1319h-369z"/>
            <glyph unicode="&#x40c;"
                   d="M173 0v1443h132v-650h44l631 650h173l-686 -697l746 -746h-183l-681 684h-44v-684h-132zM530 1617l310 297h174l-326 -297h-158z"/>
            <glyph unicode="&#x40d;"
                   d="M162 0v1443h124v-1198h13l670 1198h135v-1443h-124v1199h-13l-673 -1199h-132zM266 1914h174l310 -297h-158z"/>
            <glyph unicode="&#x40e;"
                   d="M77 1443h148l412 -965h12l397 965h142l-447 -1044q-100 -232 -190.5 -320.5t-229.5 -88.5q-50 0 -74 12v124q36 -9 74 -9q78 0 137 49t113 158zM316 1914h120q0 -91 55 -148.5t141 -57.5t141 57.5t55 148.5h120q0 -133 -87.5 -215.5t-228.5 -82.5t-228.5 82.5 t-87.5 215.5z"/>
            <glyph unicode="&#x40f;" d="M127 0v1443h136v-1319h740v1319h136v-1443h-442v-285h-128v285h-442z"/>
            <glyph unicode="&#x410;"
                   d="M90 0l476 1443h134l476 -1443h-140l-141 442h-524l-141 -442h-140zM408 560h450l-224 704h-2z"/>
            <glyph unicode="&#x411;"
                   d="M190 0v1443h825v-124h-688v-467h361q205 0 333 -118.5t128 -308.5t-127.5 -307.5t-332.5 -117.5h-499zM327 124h330q166 0 259 79.5t93 221.5t-93.5 222.5t-258.5 80.5h-330v-604z"/>
            <glyph unicode="&#x412;"
                   d="M204 0v1443h444q197 0 308 -94.5t111 -261.5q0 -121 -68 -209.5t-176 -108.5v-13q146 -16 232 -113t86 -244q0 -189 -129.5 -294t-362.5 -105h-445zM341 121h289q181 0 276 73t95 212t-96 210.5t-282 71.5h-282v-567zM341 807h248q166 0 253 66t87 192q0 122 -80.5 189.5 t-226.5 67.5h-281v-515z"/>
            <glyph unicode="&#x413;" d="M92 0v118h295v1207h-295v118h1138v-403h-128v285h-579v-1207h345v-118h-776z"/>
            <glyph unicode="&#x414;"
                   d="M19 124h93q64 37 98.5 129.5t43.5 254.5l51 935h774v-1319h168v-409h-127v285h-973v-285h-128v409zM285 124h658v1195h-515l-45 -816q-8 -145 -31 -230.5t-67 -138.5v-10z"/>
            <glyph unicode="&#x415;" d="M242 0v1443h830v-124h-693v-519h656v-122h-656v-554h693v-124h-830z"/>
            <glyph unicode="&#x416;"
                   d="M0 0l415 742l-376 701h142l333 -652h57v652h122v-652h57l332 652h140l-374 -698l418 -745h-142l-374 685h-57v-685h-122v685h-57l-374 -685h-140z"/>
            <glyph unicode="&#x417;"
                   d="M110 369h133q8 -121 115.5 -198.5t267.5 -77.5q168 0 274 84t106 216q0 136 -103.5 212t-288.5 76h-193v122h188q148 0 239.5 77.5t91.5 202.5q0 122 -88.5 195t-235.5 73q-145 0 -237.5 -73t-103.5 -195h-134q13 178 143.5 284t336.5 106q199 0 328 -107t129 -272 q0 -125 -75.5 -216.5t-202.5 -119.5v-12q158 -14 252 -110.5t94 -245.5q0 -179 -149 -299.5t-370 -120.5q-220 0 -365 112t-152 287z"/>
            <glyph unicode="&#x418;" d="M162 0v1443h124v-1198h13l670 1198h135v-1443h-124v1199h-13l-673 -1199h-132z"/>
            <glyph unicode="&#x419;"
                   d="M162 0v1443h124v-1198h13l670 1198h135v-1443h-124v1199h-13l-673 -1199h-132zM317 1914h120q0 -91 55 -148.5t141 -57.5t141 57.5t55 148.5h120q0 -133 -87.5 -215.5t-228.5 -82.5t-228.5 82.5t-87.5 215.5z"/>
            <glyph unicode="&#x41a;"
                   d="M173 0v1443h132v-650h44l631 650h173l-686 -697l746 -746h-183l-681 684h-44v-684h-132z"/>
            <glyph unicode="&#x41b;"
                   d="M7 1v123q16 -7 52 -7q94 0 142 94.5t60 305.5l51 926h799v-1443h-136v1319h-539l-46 -809q-16 -270 -92.5 -394.5t-226.5 -124.5q-34 0 -64 10z"/>
            <glyph unicode="&#x41c;"
                   d="M104 0v1443h157l367 -924h11l365 924h158v-1443h-128v1177h-10l-332 -838h-118l-332 838h-10v-1177h-128z"/>
            <glyph unicode="&#x41d;" d="M166 0v1443h137v-642h660v642h137v-1443h-137v677h-660v-677h-137z"/>
            <glyph unicode="&#x41e;"
                   d="M114 602v239q0 297 138.5 464.5t380.5 167.5t380.5 -167.5t138.5 -464.5v-239q0 -297 -138.5 -464.5t-380.5 -167.5t-380.5 167.5t-138.5 464.5zM251 602q0 -239 102 -372t280 -133t280 133t102 372v239q0 239 -102 372t-280 133t-280 -133t-102 -372v-239z"/>
            <glyph unicode="&#x41f;" d="M147 0v1443h972v-1443h-137v1318h-698v-1318h-137z"/>
            <glyph unicode="&#x420;"
                   d="M216 0v1443h462q203 0 327.5 -123.5t124.5 -325.5t-124.5 -325.5t-327.5 -123.5h-325v-545h-137zM353 667h292q164 0 255 86t91 241t-91 241t-255 86h-292v-654z"/>
            <glyph unicode="&#x421;"
                   d="M142 602v239q0 301 137.5 466.5t386.5 165.5q220 0 350 -126t135 -345h-137q-6 154 -102.5 249t-245.5 95q-190 0 -288.5 -128.5t-98.5 -376.5v-239q0 -248 98.5 -376.5t288.5 -128.5q157 0 250 84t97 230h137q0 -193 -136 -317t-348 -124q-249 0 -386.5 165.5 t-137.5 466.5z"/>
            <glyph unicode="&#x422;" d="M121 1319v124h1024v-124h-444v-1319h-136v1319h-444z"/>
            <glyph unicode="&#x423;"
                   d="M77 1443h148l412 -965h12l397 965h142l-447 -1044q-100 -232 -190.5 -320.5t-229.5 -88.5q-50 0 -74 12v124q36 -9 74 -9q78 0 137 49t113 158z"/>
            <glyph unicode="&#x424;"
                   d="M11 725q0 265 149.5 423.5t404.5 164.5v147h136v-147q255 -6 404.5 -164.5t149.5 -423.5q0 -266 -149.5 -424.5t-404.5 -163.5v-154h-136v154q-255 5 -404.5 163.5t-149.5 424.5zM149 725q0 -209 112.5 -335t304.5 -130v930q-192 -5 -304.5 -130.5t-112.5 -334.5z M700 260q192 4 304.5 130t112.5 335t-112.5 334.5t-304.5 130.5v-930z"/>
            <glyph unicode="&#x425;"
                   d="M86 0l469 724l-465 719h158l389 -609h5l393 609h145l-473 -724l465 -719h-157l-387 606h-5l-392 -606h-145z"/>
            <glyph unicode="&#x426;" d="M110 0v1443h137v-1319h717v1319h137v-1319h163v-409h-128v285h-1026z"/>
            <glyph unicode="&#x427;"
                   d="M109 1041v402h137v-392q0 -172 99.5 -271.5t263.5 -99.5q225 0 361 125v638h136v-1443h-136v662h-11q-135 -109 -351 -109q-227 0 -363 135.5t-136 352.5z"/>
            <glyph unicode="&#x428;" d="M75 0v1443h136v-1319h354v1319h136v-1319h354v1319h136v-1443h-1116z"/>
            <glyph unicode="&#x429;"
                   d="M51 0v1443h136v-1319h332v1319h136v-1319h332v1319h136v-1319h143v-409h-126v285h-1089z"/>
            <glyph unicode="&#x42a;"
                   d="M28 1319v124h443v-558h324q188 0 305.5 -122.5t117.5 -320.5q0 -197 -116.5 -319.5t-304.5 -122.5h-463v1319h-306zM471 124h293q148 0 231 84t83 234t-83.5 235t-230.5 85h-293v-638z"/>
            <glyph unicode="&#x42b;"
                   d="M119 0v1443h137v-559h155q206 0 332 -121.5t126 -320.5t-126 -320.5t-332 -121.5h-292zM256 123h122q166 0 259 84.5t93 234.5t-93 234.5t-259 84.5h-122v-638zM1011 0v1443h136v-1443h-136z"/>
            <glyph unicode="&#x42c;"
                   d="M189 0v1443h137v-559h365q206 0 332 -121.5t126 -320.5t-126 -320.5t-332 -121.5h-502zM326 123h332q166 0 259 84.5t93 234.5t-93 234.5t-259 84.5h-332v-638z"/>
            <glyph unicode="&#x42d;"
                   d="M87 411h138q29 -153 127 -233.5t257 -80.5q197 0 302.5 146.5t116.5 433.5h-593v124h591q-16 271 -121 408t-296 137q-154 0 -254 -89.5t-130 -254.5h-138q27 218 167.5 344.5t354.5 126.5q271 0 415.5 -194t144.5 -557t-144.5 -557t-415.5 -194q-221 0 -357.5 115 t-164.5 325z"/>
            <glyph unicode="&#x42e;"
                   d="M60 0v1443h130v-660h155q21 350 131 520t315 170q219 0 333 -192t114 -560t-114 -560t-333 -192q-211 0 -318.5 166.5t-127.5 523.5h-155v-659h-130zM482 721q0 -625 308 -625t308 625t-308 625t-308 -625z"/>
            <glyph unicode="&#x42f;"
                   d="M153 0l418 596q-163 32 -258 144t-95 272q0 193 127.5 312t335.5 119h456v-1443h-134v579h-283l-406 -579h-161zM358 1012q0 -146 93.5 -227.5t261.5 -81.5h290v618h-290q-168 0 -261.5 -81.5t-93.5 -227.5z"/>
            <glyph unicode="&#x430;"
                   d="M194 304q0 142 97 223.5t276 89.5l312 14v102q0 116 -65 177.5t-189 61.5q-102 0 -170 -42t-90 -120h-130q15 121 124.5 198.5t265.5 77.5q183 0 284.5 -91.5t101.5 -255.5v-740h-126v170h-14q-38 -91 -124.5 -139.5t-208.5 -48.5q-155 0 -249.5 88.5t-94.5 234.5z M329 304q0 -96 64.5 -151.5t176.5 -55.5q131 0 220 79.5t89 195.5v150l-303 -13q-121 -5 -184 -57.5t-63 -147.5z"/>
            <glyph unicode="&#x431;"
                   d="M157 617q0 295 56 474.5t175.5 266t318.5 92.5q34 0 134 6q54 3 126.5 18t109.5 31v-117q-108 -47 -229 -53q-60 -7 -137 -7q-214 -6 -314 -119t-127 -378h12q53 111 153.5 171.5t231.5 60.5q217 0 345.5 -144.5t128.5 -387.5q0 -254 -132 -402t-360 -148 q-241 0 -366.5 162.5t-125.5 473.5zM292 531q0 -202 95 -317t262 -115t262 115t95 317q0 194 -95 304t-262 110t-262 -110t-95 -304z"/>
            <glyph unicode="&#x432;"
                   d="M251 0v1077h452q151 0 237.5 -72.5t86.5 -198.5q0 -88 -53 -154t-136 -82v-13q107 -13 174 -82.5t67 -168.5q0 -145 -98 -225.5t-274 -80.5h-456zM382 111h322q119 0 182 50.5t63 146.5q0 193 -271 193h-296v-390zM382 612h286q110 0 169.5 47t59.5 135q0 82 -55 127 t-154 45h-306v-354z"/>
            <glyph unicode="&#x433;" d="M159 0v111h210v855h-210v111h950v-344h-126v233h-483v-855h280v-111h-621z"/>
            <glyph unicode="&#x434;"
                   d="M64 111h87q108 70 131 357q8 99 43 609h675v-966h174v-396h-124v285h-862v-285h-124v396zM308 111h561v855h-427q-6 -124 -37 -503q-21 -247 -97 -340v-12z"/>
            <glyph unicode="&#x435;"
                   d="M201 468v157q0 213 121.5 341.5t321.5 128.5q209 0 323 -132.5t114 -373.5v-85h-749v-37q0 -169 88.5 -268.5t238.5 -99.5q110 0 186 44t101 123h130q-27 -129 -140.5 -206.5t-276.5 -77.5q-217 0 -337.5 128t-120.5 358zM332 612h616q0 172 -81 269.5t-223 97.5 q-146 0 -229 -97.5t-83 -269.5z"/>
            <glyph unicode="&#x436;"
                   d="M-10 0l420 559l-400 518h157l339 -474h68v474h118v-474h68l339 474h157l-400 -518l420 -559h-163l-352 502h-69v-502h-118v502h-69l-352 -502h-163z"/>
            <glyph unicode="&#x437;"
                   d="M203 275h135q19 -85 94.5 -133.5t189.5 -48.5q130 0 209.5 57.5t79.5 150.5q0 97 -75.5 149t-217.5 52h-148v112h152q116 0 182.5 49.5t66.5 134.5t-66.5 134.5t-182.5 49.5q-109 0 -181.5 -49t-88.5 -133h-130q20 136 128 215.5t272 79.5q172 0 275 -78.5t103 -208.5 q0 -83 -59 -150t-148 -86v-12q115 -20 181.5 -88t66.5 -164q0 -146 -116 -236.5t-303 -90.5q-173 0 -286.5 80t-132.5 214z"/>
            <glyph unicode="&#x438;" d="M199 0v1077h128v-869h13l598 869h128v-1077h-128v869h-12l-599 -869h-128z"/>
            <glyph unicode="&#x439;"
                   d="M199 0v1077h128v-869h13l598 869h128v-1077h-128v869h-12l-599 -869h-128zM317 1556h120q0 -91 55 -148.5t141 -57.5t141 57.5t55 148.5h120q0 -133 -87.5 -215.5t-228.5 -82.5t-228.5 82.5t-87.5 215.5z"/>
            <glyph unicode="&#x43a;"
                   d="M244 0v1077h121v-472h71l521 472h164l-575 -517l601 -560h-175l-536 500h-71v-500h-121z"/>
            <glyph unicode="&#x43b;"
                   d="M81 1v121q26 -8 56 -8q77 0 119 84.5t57 269.5q4 50 23 307t21 302h694v-1077h-131v966h-443q-2 -47 -18 -255t-20 -248q-21 -251 -90.5 -361.5t-205.5 -110.5q-35 0 -62 10z"/>
            <glyph unicode="&#x43c;"
                   d="M123 0v1077h149l359 -895h11l358 895h143v-1077h-118v837h-13l-327 -816h-101l-330 816h-13v-837h-118z"/>
            <glyph unicode="&#x43d;" d="M198 0v1077h131v-462h608v462h131v-1077h-131v504h-608v-504h-131z"/>
            <glyph unicode="&#x43e;"
                   d="M177 458v160q0 218 124 347t332 129t332 -129t124 -347v-160q0 -218 -124 -347t-332 -129t-332 129t-124 347zM308 475q0 -174 87.5 -275t237.5 -101t237.5 101t87.5 275v126q0 174 -87.5 275t-237.5 101t-237.5 -101t-87.5 -275v-126z"/>
            <glyph unicode="&#x43f;" d="M208 0v1077h850v-1077h-131v966h-588v-966h-131z"/>
            <glyph unicode="&#x440;"
                   d="M202 -365v1442h125v-155h18q96 173 331 173q187 0 303.5 -125.5t116.5 -327.5v-207q0 -202 -116.5 -327.5t-303.5 -125.5q-117 0 -202 46t-123 131h-18v-524h-131zM330 466q0 -167 86.5 -267t230.5 -100q145 0 231.5 100t86.5 267v144q0 167 -86.5 267t-231.5 100 q-144 0 -230.5 -100t-86.5 -267v-144z"/>
            <glyph unicode="&#x441;"
                   d="M199 462v153q0 225 120.5 352.5t332.5 127.5q167 0 280.5 -91.5t134.5 -243.5h-130q-16 96 -97 156.5t-191 60.5q-154 0 -236.5 -99.5t-82.5 -284.5v-109q0 -185 82.5 -284.5t236.5 -99.5q110 0 191 60.5t97 156.5h130q-21 -152 -134.5 -243.5t-280.5 -91.5 q-212 0 -332.5 127.5t-120.5 352.5z"/>
            <glyph unicode="&#x442;" d="M169 966v111h928v-111h-398v-966h-132v966h-398z"/>
            <glyph unicode="&#x443;"
                   d="M159 1077h142l326 -934h12l325 934h140l-419 -1129q-72 -194 -144 -261.5t-204 -67.5q-27 0 -61 4v114q20 -4 59 -4q74 0 120 43t86 150l22 67z"/>
            <glyph unicode="&#x444;"
                   d="M55 537q0 254 133.5 397.5t381.5 155.5v363h128v-363q248 -12 381.5 -155.5t133.5 -397.5q0 -253 -133.5 -396t-381.5 -156v-342h-128v342q-248 13 -381.5 156t-133.5 396zM188 537q0 -209 97 -320.5t285 -117.5v877q-188 -5 -285 -116.5t-97 -322.5zM698 99 q188 6 285 117.5t97 320.5q0 211 -97 322.5t-285 116.5v-877z"/>
            <glyph unicode="&#x445;"
                   d="M179 1077h158l293 -430h12l291 430h151l-378 -530l382 -547h-157l-293 440h-12l-294 -440h-150l380 542z"/>
            <glyph unicode="&#x446;" d="M181 0v1077h131v-966h583v966h131v-966h175v-396h-124v285h-896z"/>
            <glyph unicode="&#x447;"
                   d="M181 779v298h131v-293q0 -129 69.5 -201t195.5 -72q99 0 186 41t132 108v417h131v-1077h-131v509h-14q-124 -116 -309 -116q-183 0 -287 103t-104 283z"/>
            <glyph unicode="&#x448;" d="M77 0v1077h130v-966h361v966h130v-966h361v966h130v-1077h-1112z"/>
            <glyph unicode="&#x449;"
                   d="M77 0v1077h130v-966h349v966h130v-966h349v966h130v-966h155v-396h-123v285h-1120z"/>
            <glyph unicode="&#x44a;"
                   d="M89 966v111h427v-366h239q182 0 289.5 -96.5t107.5 -259.5t-107.5 -259t-289.5 -96h-370v966h-296zM516 111h239q121 0 193.5 67t72.5 177q0 111 -73 177.5t-193 66.5h-239v-488z"/>
            <glyph unicode="&#x44b;"
                   d="M134 0v1077h131v-365h220q170 0 270 -96.5t100 -259.5t-100 -259.5t-270 -96.5h-351zM265 111h218q109 0 175 67t66 177t-66 177t-175 67h-218v-488zM1001 0v1077h131v-1077h-131z"/>
            <glyph unicode="&#x44c;"
                   d="M256 0v1077h131v-367h283q208 0 316 -91t108 -264t-108 -264t-316 -91h-414zM387 111h285q145 0 219 62.5t74 181.5t-74 181.5t-219 62.5h-285v-488z"/>
            <glyph unicode="&#x44d;"
                   d="M168 759q24 144 143 240t302 96q222 0 353.5 -150t131.5 -401q0 -258 -131.5 -410.5t-353.5 -152.5q-185 0 -302 91t-142 237h133q24 -96 105.5 -152.5t205.5 -56.5q153 0 248.5 109t103.5 292h-530v112h528q-13 166 -108.5 264.5t-241.5 98.5q-123 0 -205.5 -61 t-106.5 -156h-133z"/>
            <glyph unicode="&#x44e;"
                   d="M72 0v1077h128v-462h201q18 220 129 350t288 130q196 0 309 -149.5t113 -407.5t-113 -407.5t-309 -149.5q-186 0 -298 142t-122 381h-198v-504h-128zM531 538q0 -206 76 -322.5t211 -116.5t211 116.5t76 322.5t-76 322.5t-211 116.5t-211 -116.5t-76 -322.5z"/>
            <glyph unicode="&#x44f;"
                   d="M174 0l311 429q-125 26 -196.5 106.5t-71.5 198.5q0 159 105.5 251t284.5 92h366v-1077h-131v407h-218l-293 -407h-157zM348 737q0 -98 71 -158.5t188 -60.5h235v448h-235q-119 0 -189 -61.5t-70 -167.5z"/>
            <glyph unicode="&#x450;"
                   d="M201 468v157q0 213 121.5 341.5t321.5 128.5q209 0 323 -132.5t114 -373.5v-85h-749v-37q0 -169 88.5 -268.5t238.5 -99.5q110 0 186 44t101 123h130q-27 -129 -140.5 -206.5t-276.5 -77.5q-217 0 -337.5 128t-120.5 358zM332 612h616q0 172 -81 269.5t-223 97.5 q-146 0 -229 -97.5t-83 -269.5zM336 1628h172l238 -332h-151z"/>
            <glyph unicode="&#x451;"
                   d="M201 468v157q0 213 121.5 341.5t321.5 128.5q209 0 323 -132.5t114 -373.5v-85h-749v-37q0 -169 88.5 -268.5t238.5 -99.5q110 0 186 44t101 123h130q-27 -129 -140.5 -206.5t-276.5 -77.5q-217 0 -337.5 128t-120.5 358zM332 612h616q0 172 -81 269.5t-223 97.5 q-146 0 -229 -97.5t-83 -269.5zM343 1437q0 43 32 75t74 32t74 -32t32 -75t-32 -75t-74 -32t-74 32t-32 75zM725 1437q0 43 32 75t74 32t74 -32t32 -75t-32 -75t-74 -32t-74 32t-32 75z"/>
            <glyph unicode="&#x452;"
                   d="M30 1280v97h177v129h125v-129h250v-97h-250v-397h13q44 102 135.5 157t216.5 55q176 0 269 -101.5t93 -293.5v-770q0 -154 -74 -225.5t-234 -71.5h-29v113h26q97 0 138.5 42t41.5 140v739q0 158 -65 234t-201 76q-145 0 -234.5 -93.5t-89.5 -243.5v-640h-131v1280h-177z "/>
            <glyph unicode="&#x453;"
                   d="M159 0v111h210v855h-210v111h950v-344h-126v233h-483v-855h280v-111h-621zM605 1296l238 332h172l-259 -332h-151z"/>
            <glyph unicode="&#x454;"
                   d="M166 544q0 251 131.5 401t353.5 150q183 0 302 -96t143 -240h-133q-24 95 -106.5 156t-205.5 61q-146 0 -241.5 -98.5t-108.5 -264.5h528v-112h-530q8 -183 103.5 -292t248.5 -109q124 0 205.5 56.5t105.5 152.5h133q-25 -146 -142 -237t-302 -91q-222 0 -353.5 152.5 t-131.5 410.5z"/>
            <glyph unicode="&#x455;"
                   d="M224 270h136q21 -83 95.5 -129.5t186.5 -46.5q121 0 192.5 52.5t71.5 141.5q0 74 -47 116.5t-157 68.5l-159 38q-286 67 -286 286q0 133 106 215.5t276 82.5q158 0 262 -75.5t121 -203.5h-129q-17 79 -86 124.5t-172 45.5q-112 0 -179 -50t-67 -134q0 -71 48 -113 t158 -67l146 -34q155 -37 228 -107.5t73 -184.5q0 -142 -111 -228t-295 -86q-175 0 -286 77.5t-126 210.5z"/>
            <glyph unicode="&#x456;"
                   d="M221 971v106h512v-971h369v-106h-879v106h379v865h-381zM529 1486q0 51 36.5 87.5t87.5 36.5t87.5 -36.5t36.5 -87.5t-36.5 -87.5t-87.5 -36.5t-87.5 36.5t-36.5 87.5z"/>
            <glyph unicode="&#x457;"
                   d="M221 971v106h512v-971h369v-106h-879v106h379v865h-381zM359 1427q0 43 32 75t74 32t74 -32t32 -75t-32 -75t-74 -32t-74 32t-32 75zM741 1427q0 43 32 75t74 32t74 -32t32 -75t-32 -75t-74 -32t-74 32t-32 75z"/>
            <glyph unicode="&#x458;"
                   d="M191 -194q103 -10 252 -10q169 0 229 46t60 176v953h-511v106h642v-1089q0 -160 -98 -231.5t-319 -71.5q-137 0 -255 11v110zM659 1486q0 51 36.5 87.5t87.5 36.5t87.5 -36.5t36.5 -87.5t-36.5 -87.5t-87.5 -36.5t-87.5 36.5t-36.5 87.5z"/>
            <glyph unicode="&#x459;"
                   d="M0 1v121q24 -8 47 -8q62 0 95 85.5t43 268.5l33 609h538v-367h180q152 0 241 -96t89 -259t-89 -259t-241 -96h-311v966h-290l-28 -503q-14 -247 -74 -359.5t-178 -112.5q-21 0 -55 10zM756 111h173q94 0 150 66t56 178t-56 178t-150 66h-173v-488z"/>
            <glyph unicode="&#x45a;"
                   d="M87 0v1077h131v-448h394v448h131v-447h198q149 0 237 -85t88 -230t-88 -230t-237 -85h-329v519h-394v-519h-131zM743 111h193q91 0 145 55t54 149t-54 149t-145 55h-193v-408z"/>
            <glyph unicode="&#x45b;"
                   d="M30 1280v97h177v129h125v-129h250v-97h-250v-397h13q44 102 135.5 157t216.5 55q176 0 269 -101.5t93 -293.5v-700h-131v667q0 158 -65 234t-201 76q-145 0 -234.5 -93.5t-89.5 -243.5v-640h-131v1280h-177z"/>
            <glyph unicode="&#x45c;"
                   d="M244 0v1077h121v-472h71l521 472h164l-575 -517l601 -560h-175l-536 500h-71v-500h-121zM545 1296l238 332h172l-259 -332h-151z"/>
            <glyph unicode="&#x45d;"
                   d="M199 0v1077h128v-869h13l598 869h128v-1077h-128v869h-12l-599 -869h-128zM300 1628h172l238 -332h-151z"/>
            <glyph unicode="&#x45e;"
                   d="M159 1077h142l326 -934h12l325 934h140l-419 -1129q-72 -194 -144 -261.5t-204 -67.5q-27 0 -61 4v114q20 -4 59 -4q74 0 120 43t86 150l22 67zM317 1556h120q0 -91 55 -148.5t141 -57.5t141 57.5t55 148.5h120q0 -133 -87.5 -215.5t-228.5 -82.5t-228.5 82.5 t-87.5 215.5z"/>
            <glyph unicode="&#x45f;" d="M198 0v1077h131v-966h608v966h131v-1077h-373v-285h-124v285h-373z"/>
            <glyph unicode="&#x462;"
                   d="M0 1101v124h329v218h137v-218h514v-124h-514v-257h285q206 0 332 -116t126 -306t-126 -306t-332 -116h-422v1101h-329zM466 123h252q166 0 259 79.5t93 219.5t-93 219.5t-259 79.5h-252v-598z"/>
            <glyph unicode="&#x463;"
                   d="M40 966v111h286v429h131v-429h478v-111h-478v-256h253q208 0 316 -91t108 -264t-108 -264t-316 -91h-384v966h-286zM457 111h255q145 0 219 62.5t74 181.5t-74 181.5t-219 62.5h-255v-488z"/>
            <glyph unicode="&#x472;"
                   d="M114 603v239q0 297 138.5 464.5t380.5 167.5t380.5 -167.5t138.5 -464.5v-239q0 -297 -138.5 -464.5t-380.5 -167.5t-380.5 167.5t-138.5 464.5zM251 603q0 -239 102 -372t280 -133t280 133t102 372v80q-82 -75 -186 -75q-68 0 -125 17t-90 37.5t-81 37.5t-101 17 q-109 0 -181 -93v-21zM251 764q81 74 186 74q68 0 125 -17t90 -37.5t81 -37.5t101 -17q109 0 181 93v20q0 239 -102 372t-280 133t-280 -133t-102 -372v-78z"/>
            <glyph unicode="&#x473;"
                   d="M177 458v160q0 218 124 347t332 129t332 -129t124 -347v-160q0 -218 -124 -347t-332 -129t-332 129t-124 347zM308 458q4 -167 91.5 -263t233.5 -96q150 0 237.5 101t87.5 275v21q-67 -64 -154 -64q-60 0 -109.5 16.5t-78 36t-70.5 36t-88 16.5q-92 0 -150 -79zM308 591 q68 63 154 63q59 0 109 -16.5t78.5 -36t70.5 -36t88 -16.5q90 0 149 78q-7 163 -93.5 256.5t-230.5 93.5q-150 0 -237.5 -101t-87.5 -275v-10z"/>
            <glyph unicode="&#x474;"
                   d="M90 1443h139l353 -1254h2l270 1025q36 136 92.5 198t169.5 62q34 0 66.5 -8t47.5 -16l16 -7l-42 -115q-40 19 -87 19q-52 0 -80 -29t-46 -94l-341 -1224h-134z"/>
            <glyph unicode="&#x475;"
                   d="M161 1077h140l326 -934h12l226 698q23 70 42 112.5t49 79t71 52.5t99 16q34 0 66.5 -7.5t47.5 -15.5l16 -8l-42 -115q-40 19 -87 19q-50 0 -76.5 -28.5t-49.5 -94.5l-298 -851h-140z"/>
            <glyph unicode="&#x48a;"
                   d="M142 0v1443h124v-1198h13l670 1198h135v-1319h172v-41l-140 -369h-120l111 286h-147v1199h-13l-673 -1199h-132zM297 1914h120q0 -91 55 -148.5t141 -57.5t141 57.5t55 148.5h120q0 -133 -87.5 -215.5t-228.5 -82.5t-228.5 82.5t-87.5 215.5z"/>
            <glyph unicode="&#x48b;"
                   d="M198 0v1077h128v-869h13l598 869h128v-953h168v-41l-140 -369h-120l111 286h-147v869h-12l-599 -869h-128zM316 1556h120q0 -91 55 -148.5t141 -57.5t141 57.5t55 148.5h120q0 -133 -87.5 -215.5t-228.5 -82.5t-228.5 82.5t-87.5 215.5z"/>
            <glyph unicode="&#x48c;"
                   d="M0 1101v124h329v218h137v-218h514v-124h-514v-257h285q206 0 332 -116t126 -306t-126 -306t-332 -116h-422v1101h-329zM466 123h252q166 0 259 79.5t93 219.5t-93 219.5t-259 79.5h-252v-598z"/>
            <glyph unicode="&#x48d;"
                   d="M40 966v111h286v429h131v-429h478v-111h-478v-256h253q208 0 316 -91t108 -264t-108 -264t-316 -91h-384v966h-286zM457 111h255q145 0 219 62.5t74 181.5t-74 181.5t-219 62.5h-255v-488z"/>
            <glyph unicode="&#x48e;"
                   d="M216 0v1443h462q203 0 327.5 -123.5t124.5 -325.5q0 -131 -54.5 -231.5t-152.5 -156.5l157 -245l-98 -70l-174 269q-60 -15 -130 -15h-325v-545h-137zM353 667h292q51 0 96 9l-150 231l89 60l163 -255q148 80 148 282q0 155 -91 241t-255 86h-292v-654z"/>
            <glyph unicode="&#x48f;"
                   d="M207 -365v1442h125v-155h18q96 173 331 173q187 0 303.5 -125.5t116.5 -327.5v-207q0 -224 -139 -350l138 -214l-98 -70l-141 218q-82 -37 -180 -37q-117 0 -202 46t-123 131h-18v-524h-131zM335 466q0 -167 86.5 -267t230.5 -100q78 0 140 30l-11 25l-170 263l89 60 l176 -275l5 -5q89 100 89 269v144q0 167 -86.5 267t-231.5 100q-144 0 -230.5 -100t-86.5 -267v-144z"/>
            <glyph unicode="&#x490;"
                   d="M92 0v124h259v1195h-259v124h1010v273h128v-676h-128v278h-612v-1194h289v-124h-687z"/>
            <glyph unicode="&#x491;"
                   d="M159 0v111h210v855h-210v111h824v274h126v-618h-126v233h-483v-855h280v-111h-621z"/>
            <glyph unicode="&#x492;"
                   d="M72 681v124h315v520h-295v118h1138v-403h-128v285h-579v-520h321v-124h-321v-563h345v-118h-776v118h295v563h-315z"/>
            <glyph unicode="&#x493;"
                   d="M148 450v111h221v405h-210v111h950v-344h-126v233h-483v-405h349v-111h-349v-339h280v-111h-621v111h210v339h-221z"/>
            <glyph unicode="&#x494;"
                   d="M183 0v1443h759v-123h-623v-547h12q117 117 315 117q204 0 323 -124.5t119 -332.5q0 -202 -100.5 -324.5t-266.5 -122.5q-72 0 -105 15v123q29 -13 100 -13q107 0 171 87t64 234q0 152 -83 243t-222 91q-105 0 -191 -42t-136 -106v-618h-136z"/>
            <glyph unicode="&#x495;"
                   d="M249 0v1077h730v-111h-599v-485h8q50 54 129 90t182 36q190 0 297.5 -124.5t107.5 -333.5q0 -212 -107.5 -343.5t-280.5 -131.5q-68 0 -100 10v119q28 -9 98 -9q114 0 186.5 99.5t72.5 255.5q0 153 -72.5 245.5t-201.5 92.5q-202 0 -319 -154v-333h-131z"/>
            <glyph unicode="&#x496;"
                   d="M0 0l389 742l-352 701h133l312 -652h53v652h114v-652h54l311 652h131l-350 -698l326 -621h145v-410h-120v286h-93l-350 685h-54v-685h-114v685h-53l-351 -685h-131z"/>
            <glyph unicode="&#x497;"
                   d="M-10 0l402 559l-383 518h150l329 -474h66v474h114v-474h66l329 474h150l-383 -518l322 -448h114v-396h-121v285h-68l-342 502h-67v-502h-114v502h-67l-342 -502h-155z"/>
            <glyph unicode="&#x498;"
                   d="M110 369h133q8 -121 115.5 -198.5t267.5 -77.5q168 0 274 84t106 216q0 136 -103.5 212t-288.5 76h-193v122h188q148 0 239.5 77.5t91.5 202.5q0 122 -88.5 195t-235.5 73q-145 0 -237.5 -73t-103.5 -195h-134q13 178 143.5 284t336.5 106q199 0 328 -107t129 -272 q0 -125 -75.5 -216.5t-202.5 -119.5v-12q158 -14 252 -110.5t94 -245.5q0 -164 -127 -280.5t-324 -136.5v-259h-128v258q-197 16 -323.5 125t-133.5 272z"/>
            <glyph unicode="&#x499;"
                   d="M195 275h135q19 -85 94.5 -133.5t189.5 -48.5q130 0 209.5 57.5t79.5 150.5q0 97 -75.5 149t-217.5 52h-148v112h152q116 0 182.5 49.5t66.5 134.5t-66.5 134.5t-182.5 49.5q-109 0 -181.5 -49t-88.5 -133h-130q20 136 128 215.5t272 79.5q172 0 275 -78.5t103 -208.5 q0 -83 -59 -150t-148 -86v-12q115 -20 181.5 -88t66.5 -164q0 -132 -96 -219.5t-255 -104.5v-269h-121v268q-152 12 -250.5 90.5t-115.5 201.5z"/>
            <glyph unicode="&#x49a;"
                   d="M173 0v1443h132v-650h44l631 650h173l-686 -697l622 -622h157v-410h-120v286h-96l-681 684h-44v-684h-132z"/>
            <glyph unicode="&#x49b;"
                   d="M244 0v1077h121v-472h71l521 472h164l-575 -517l482 -449h156v-396h-121v285h-91l-536 500h-71v-500h-121z"/>
            <glyph unicode="&#x49c;"
                   d="M173 0v1443h132v-1443h-132zM503 309v856h127v-372h11l366 650h149l-394 -698l454 -745h-159l-416 684h-11v-375h-127z"/>
            <glyph unicode="&#x49d;"
                   d="M204 0v1077h121v-1077h-121zM502 204v712h115v-311h9l381 472h154l-425 -517l451 -560h-165l-396 500h-9v-296h-115z"/>
            <glyph unicode="&#x49e;"
                   d="M12 1211v124h191v108h132v-108h269v-124h-269v-418h44l611 650h173l-666 -697l726 -746h-183l-661 684h-44v-684h-132v1211h-191z"/>
            <glyph unicode="&#x49f;"
                   d="M90 1280v97h177v129h131v-129h244v-97h-244v-710h12l506 507h166l-426 -417l456 -660h-158l-390 570l-166 -162v-408h-131v1280h-177z"/>
            <glyph unicode="&#x4a0;"
                   d="M10 1319v124h548v-650h44l441 650h153l-476 -697l536 -746h-163l-491 684h-44v-684h-132v1319h-416z"/>
            <glyph unicode="&#x4a1;"
                   d="M10 966v111h584v-472h31l441 472h164l-491 -517l517 -560h-175l-456 500h-31v-500h-121v966h-463z"/>
            <glyph unicode="&#x4a2;"
                   d="M166 0v1443h137v-642h660v642h137v-1319h162v-410h-128v286h-171v677h-660v-677h-137z"/>
            <glyph unicode="&#x4a3;"
                   d="M181 0v1077h131v-462h608v462h131v-966h176v-396h-121v285h-186v504h-608v-504h-131z"/>
            <glyph unicode="&#x4a4;" d="M56 0v1443h137v-642h470v642h603v-124h-466v-1319h-137v677h-470v-677h-137z"/>
            <glyph unicode="&#x4a5;" d="M50 0v1077h131v-462h508v462h557v-111h-426v-966h-131v504h-508v-504h-131z"/>
            <glyph unicode="&#x4a6;"
                   d="M40 0v1443h606v-654h10q86 101 224 101q157 0 241.5 -120.5t84.5 -336.5q0 -202 -82 -324.5t-217 -122.5q-57 0 -82 15v123q23 -13 78 -13q80 0 127.5 87t47.5 234q0 164 -50.5 249t-147.5 85q-146 0 -234 -138v-628h-127v1318h-351v-1318h-128z"/>
            <glyph unicode="&#x4a7;"
                   d="M80 0v1077h610v-566h6q28 39 83 67.5t127 28.5q154 0 239 -124t85 -334q0 -212 -80 -343.5t-210 -131.5q-51 0 -74 10v119q21 -9 73 -9q76 0 124.5 99.5t48.5 255.5q0 154 -53.5 246t-151.5 92q-149 0 -217 -124v-363h-128v966h-354v-966h-128z"/>
            <glyph unicode="&#x4a8;"
                   d="M30 668v117q0 145 29.5 264.5t87.5 210.5t150.5 144t213.5 58v-123q-349 -18 -349 -554v-117q0 -265 103.5 -422t304.5 -157q74 0 146 22v2q-228 184 -228 576v86q0 227 94.5 365.5t265.5 138.5t265 -138.5t94 -365.5v-86q0 -199 -73 -355.5t-193 -235.5v-4 q44 -12 124 -12q45 0 95 17.5t88 48.5l46 -101q-104 -82 -231 -82q-128 0 -242 69h-4q-136 -68 -246 -68q-263 0 -402 187.5t-139 514.5zM620 688q0 -173 53 -315t154 -217q114 65 181.5 208.5t67.5 323.5v87q0 178 -57.5 279.5t-170.5 101.5q-114 0 -171 -101.5t-57 -279.5 v-87z"/>
            <glyph unicode="&#x4a9;"
                   d="M70 498v106q0 140 41.5 245.5t131.5 172.5t222 77v-109q-135 -12 -202 -114t-67 -274v-100q0 -189 99.5 -299.5t268.5 -110.5q63 0 117 10v3q-85 72 -131 179.5t-46 236.5v75q0 179 94 279.5t240 100.5q147 0 241 -100.5t94 -279.5v-75q0 -133 -61 -242t-170 -182v-3 q17 -2 82 -2q113 0 199 52l21 -108q-94 -54 -221 -54q-115 0 -217 44h-3q-112 -44 -239 -44q-229 0 -361.5 139.5t-132.5 376.5zM632 524q0 -132 45 -234.5t130 -150.5q109 50 174 153t65 232v64q0 130 -58 204t-149 74t-149 -73.5t-58 -204.5v-64z"/>
            <glyph unicode="&#x4aa;"
                   d="M142 602v239q0 301 137.5 466.5t386.5 165.5q220 0 350 -126t135 -345h-137q-6 154 -102.5 249t-245.5 95q-190 0 -288.5 -128.5t-98.5 -376.5v-239q0 -248 98.5 -376.5t288.5 -128.5q157 0 250 84t97 230h137q0 -178 -117.5 -299t-305.5 -139l-45 -117q98 2 150.5 -39 t52.5 -119q0 -82 -63.5 -132t-166.5 -50q-66 0 -129 18v97q48 -14 121 -14q56 0 86.5 20.5t30.5 57.5q0 38 -35 54t-116 16h-57v71l53 136q-223 20 -345 183.5t-122 446.5z"/>
            <glyph unicode="&#x4ab;"
                   d="M199 462v153q0 225 120.5 352.5t332.5 127.5q167 0 280.5 -91.5t134.5 -243.5h-130q-16 96 -97 156.5t-191 60.5q-154 0 -236.5 -99.5t-82.5 -284.5v-109q0 -185 82.5 -284.5t236.5 -99.5q110 0 191 60.5t97 156.5h130q-19 -141 -119 -230.5t-250 -102.5l-49 -128 q98 2 150.5 -39t52.5 -119q0 -82 -63.5 -132t-166.5 -50q-66 0 -129 18v97q48 -14 121 -14q56 0 86.5 20.5t30.5 57.5q0 38 -35 54t-116 16h-57v71l59 150q-181 21 -282 146t-101 330z"/>
            <glyph unicode="&#x4ac;" d="M121 1319v124h1024v-124h-444v-1195h163v-410h-128v286h-171v1319h-444z"/>
            <glyph unicode="&#x4ad;" d="M169 966v111h928v-111h-398v-855h175v-396h-121v285h-186v966h-398z"/>
            <glyph unicode="&#x4ae;" d="M77 1443h157l393 -680h12l393 680h157l-488 -819v-624h-136v624z"/>
            <glyph unicode="&#x4af;" d="M161 1077h140l326 -934h12l325 934h141l-407 -1077v-368h-131v368z"/>
            <glyph unicode="&#x4b0;"
                   d="M77 1443h157l393 -680h12l393 680h157l-487 -818h364v-124h-365v-501h-136v501h-365v124h364z"/>
            <glyph unicode="&#x4b1;"
                   d="M161 1077h140l326 -934h12l325 934h141l-407 -1077h285v-111h-285v-257h-131v257h-285v111h285z"/>
            <glyph unicode="&#x4b2;"
                   d="M86 0l469 724l-465 719h158l389 -609h5l393 609h145l-473 -724l385 -595h144v-410h-120v286h-101l-387 606h-5l-392 -606h-145z"/>
            <glyph unicode="&#x4b3;"
                   d="M179 1077h158l293 -430h12l291 430h151l-378 -530l304 -436h164v-396h-121v285h-122l-293 440h-12l-294 -440h-150l380 542z"/>
            <glyph unicode="&#x4b4;"
                   d="M10 1319v124h724v-124h-275v-1195h507v1319h137v-1319h133v-409h-128v285h-786v1319h-312z"/>
            <glyph unicode="&#x4b5;"
                   d="M20 966v111h693v-111h-281v-855h493v966h131v-966h145v-396h-124v285h-776v966h-281z"/>
            <glyph unicode="&#x4b6;"
                   d="M109 1041v402h137v-392q0 -172 91.5 -271.5t241.5 -99.5q206 0 341 125v638h136v-1319h156v-410h-128v286h-164v662h-11q-135 -109 -331 -109q-214 0 -341.5 135t-127.5 353z"/>
            <glyph unicode="&#x4b7;"
                   d="M181 779v298h131v-293q0 -129 69.5 -201t195.5 -72q99 0 186 41t132 108v417h131v-966h176v-396h-121v285h-186v509h-14q-124 -116 -309 -116q-183 0 -287 103t-104 283z"/>
            <glyph unicode="&#x4b8;"
                   d="M109 1041v402h137v-392q0 -156 83 -253t223 -115v372h127v-372q177 17 291 122v638h136v-1443h-136v662h-11q-111 -90 -280 -106v-327h-127v326q-203 17 -323 150t-120 336z"/>
            <glyph unicode="&#x4b9;"
                   d="M181 779v298h131v-293q0 -120 61 -191.5t173 -80.5v324h115v-317q75 14 137 51.5t97 89.5v417h131v-1077h-131v509h-14q-92 -86 -220 -108v-257h-115v250q-171 7 -268 109.5t-97 275.5z"/>
            <glyph unicode="&#x4ba;"
                   d="M160 0v1443h136v-662h11q135 109 351 109q227 0 363 -135.5t136 -352.5v-402h-137v392q0 172 -99.5 271.5t-263.5 99.5q-225 0 -361 -125v-638h-136z"/>
            <glyph unicode="&#x4bb;"
                   d="M207 0v1506h125v-623h13q44 102 135.5 157t216.5 55q176 0 269 -101.5t93 -293.5v-700h-131v667q0 158 -65 234t-201 76q-145 0 -234.5 -93.5t-89.5 -243.5v-640h-131z"/>
            <glyph unicode="&#x4bc;"
                   d="M11 987q0 33 7.5 65.5t14.5 49.5l7 16h128q-23 -51 -23 -127q0 -68 34 -101t106 -33q19 301 141.5 458.5t348.5 157.5q155 0 264.5 -74.5t163.5 -206t54 -309.5v-150h-838v-91q0 -267 96 -405.5t270 -138.5q133 0 218.5 89t115.5 255h138q-27 -218 -153 -344.5 t-319 -126.5q-244 0 -374 180.5t-130 510.5v71q-270 0 -270 254zM420 857h702v23q0 233 -91.5 350t-255.5 117q-167 0 -257 -127t-98 -363z"/>
            <glyph unicode="&#x4bd;"
                   d="M10 758q0 33 7 65.5t15 48.5l7 17h118q-23 -56 -23 -131q0 -68 39.5 -107t111.5 -39h5v13q0 213 118.5 341.5t314.5 128.5q204 0 315.5 -132t111.5 -374v-85h-729v-37q0 -169 86 -268.5t231 -99.5q106 0 179 44t98 123h130q-27 -129 -137.5 -206.5t-269.5 -77.5 q-213 0 -330.5 128t-117.5 358v36h-9q-135 0 -203 68t-68 186zM421 612h596q0 172 -78 269.5t-216 97.5q-142 0 -222 -97.5t-80 -269.5z"/>
            <glyph unicode="&#x4be;"
                   d="M11 987q0 33 7.5 65.5t14.5 49.5l7 16h128q-23 -51 -23 -127q0 -68 34 -101t106 -33q19 301 141.5 458.5t348.5 157.5q155 0 264.5 -74.5t163.5 -206t54 -309.5v-150h-838v-91q0 -267 96 -405.5t270 -138.5q133 0 218.5 89t115.5 255h138q-25 -198 -131 -321t-271 -145 v-262h-128v260q-216 22 -331 200.5t-115 487.5v71q-270 0 -270 254zM420 857h702v23q0 233 -91.5 350t-255.5 117q-167 0 -257 -127t-98 -363z"/>
            <glyph unicode="&#x4bf;"
                   d="M10 758q0 33 7 65.5t15 48.5l7 17h118q-23 -56 -23 -131q0 -68 39.5 -107t111.5 -39h5v13q0 213 118.5 341.5t314.5 128.5q204 0 315.5 -132t111.5 -374v-85h-729v-37q0 -169 86 -268.5t231 -99.5q106 0 179 44t98 123h130q-24 -115 -116 -190t-227 -90v-271h-121v270 q-187 17 -289 143t-102 340v36h-9q-135 0 -203 68t-68 186zM421 612h596q0 172 -78 269.5t-216 97.5q-142 0 -222 -97.5t-80 -269.5z"/>
            <glyph unicode="&#x4c0;" d="M275 0v118h290v1207h-290v118h716v-118h-290v-1207h290v-118h-716z"/>
            <glyph unicode="&#x4c1;"
                   d="M0 0l415 742l-376 701h142l333 -652h57v652h122v-652h57l332 652h140l-374 -698l418 -745h-142l-374 685h-57v-685h-122v685h-57l-374 -685h-140zM317 1914h120q0 -91 55 -148.5t141 -57.5t141 57.5t55 148.5h120q0 -133 -87.5 -215.5t-228.5 -82.5t-228.5 82.5 t-87.5 215.5z"/>
            <glyph unicode="&#x4c2;"
                   d="M-10 0l420 559l-400 518h157l339 -474h68v474h118v-474h68l339 474h157l-400 -518l420 -559h-163l-352 502h-69v-502h-118v502h-69l-352 -502h-163zM315 1556h120q0 -91 55 -148.5t141 -57.5t141 57.5t55 148.5h120q0 -133 -87.5 -215.5t-228.5 -82.5t-228.5 82.5 t-87.5 215.5z"/>
            <glyph unicode="&#x4c3;"
                   d="M173 0v1443h132v-650h44l631 650h173l-655 -666q268 -29 424 -186t156 -417q0 -152 -60.5 -272t-172 -188.5t-256.5 -68.5q-43 0 -71 5v99q31 -3 71 -3q160 0 258.5 119t98.5 309q0 239 -154 374.5t-419 135.5h-68v-684h-132z"/>
            <glyph unicode="&#x4c4;"
                   d="M244 0v1077h121v-478h71l491 478h164l-513 -493q200 -33 318.5 -161t118.5 -326q0 -220 -113.5 -347t-320.5 -127q-55 0 -87 5v105q32 -5 87 -5q146 0 229.5 94.5t83.5 272.5q0 188 -120 293.5t-338 105.5h-71v-494h-121z"/>
            <glyph unicode="&#x4c5;"
                   d="M7 1v123q16 -7 52 -7q94 0 142 94.5t60 305.5l51 926h795v-1319h159v-41l-140 -369h-120l111 286h-147v124h1v1195h-535l-46 -809q-16 -270 -92.5 -394.5t-226.5 -124.5q-34 0 -64 10z"/>
            <glyph unicode="&#x4c6;"
                   d="M71 1v121q26 -8 56 -8q77 0 119 84.5t57 269.5q4 50 23 307t21 302h694v-953h165v-41l-140 -369h-120l111 286h-147v966h-443q-2 -47 -18 -255t-20 -248q-21 -251 -90.5 -361.5t-205.5 -110.5q-35 0 -62 10z"/>
            <glyph unicode="&#x4c7;"
                   d="M166 0v1443h137v-642h660v642h137v-1443q0 -91 -24.5 -158t-66.5 -103t-89 -52.5t-101 -16.5q-68 0 -116 6v121q29 -3 104 -3q156 0 156 206v677h-660v-677h-137z"/>
            <glyph unicode="&#x4c8;"
                   d="M198 0v1077h131v-462h608v462h131v-1089q0 -160 -72.5 -231.5t-234.5 -71.5q-8 0 -135 11v110q110 -10 132 -10q104 0 141.5 43.5t37.5 160.5v504h-608v-504h-131z"/>
            <glyph unicode="&#x4c9;"
                   d="M166 0v1443h137v-642h660v642h137v-1319h159v-41l-140 -369h-120l111 286h-147v677h-660v-677h-137z"/>
            <glyph unicode="&#x4ca;"
                   d="M203 0v1077h131v-462h608v462h131v-953h165v-41l-140 -369h-120l111 286h-147v504h-608v-504h-131z"/>
            <glyph unicode="&#x4cb;"
                   d="M109 1041v402h137v-392q0 -172 99.5 -271.5t263.5 -99.5q225 0 361 125v638h136v-1443h-171v-286h-128v410h163v538h-11q-135 -109 -351 -109q-227 0 -363 135.5t-136 352.5z"/>
            <glyph unicode="&#x4cc;"
                   d="M181 779v298h131v-293q0 -129 69.5 -201t195.5 -72q99 0 186 41t132 108v417h131v-1077h-186v-285h-121v396h176v398h-14q-124 -116 -309 -116q-183 0 -287 103t-104 283z"/>
            <glyph unicode="&#x4cd;"
                   d="M104 0v1443h157l337 -924h11l335 924h158v-1319h164v-41l-140 -369h-120l111 286h-143v1177h-10l-302 -838h-118l-302 838h-10v-1177h-128z"/>
            <glyph unicode="&#x4ce;"
                   d="M133 0v1077h149l329 -895h11l328 895h143v-953h148v-41l-140 -369h-120l111 286h-117v837h-13l-297 -816h-101l-300 816h-13v-837h-118z"/>
            <glyph unicode="&#x4cf;" d="M221 1400v106h512v-1400h369v-106h-879v106h379v1294h-381z"/>
            <glyph unicode="&#x4d0;"
                   d="M90 0l476 1443h134l476 -1443h-140l-141 442h-524l-141 -442h-140zM307 1914h120q0 -91 55 -148.5t141 -57.5t141 57.5t55 148.5h120q0 -133 -87.5 -215.5t-228.5 -82.5t-228.5 82.5t-87.5 215.5zM408 560h450l-224 704h-2z"/>
            <glyph unicode="&#x4d1;"
                   d="M194 304q0 142 97 223.5t276 89.5l312 14v102q0 116 -65 177.5t-189 61.5q-102 0 -170 -42t-90 -120h-130q15 121 124.5 198.5t265.5 77.5q183 0 284.5 -91.5t101.5 -255.5v-740h-126v170h-14q-38 -91 -124.5 -139.5t-208.5 -48.5q-155 0 -249.5 88.5t-94.5 234.5z M318 1556h120q0 -91 55 -148.5t141 -57.5t141 57.5t55 148.5h120q0 -133 -87.5 -215.5t-228.5 -82.5t-228.5 82.5t-87.5 215.5zM329 304q0 -96 64.5 -151.5t176.5 -55.5q131 0 220 79.5t89 195.5v150l-303 -13q-121 -5 -184 -57.5t-63 -147.5z"/>
            <glyph unicode="&#x4d2;"
                   d="M90 0l476 1443h134l476 -1443h-140l-141 442h-524l-141 -442h-140zM336 1773q0 43 32 75t74 32t74 -32t32 -75t-32 -75t-74 -32t-74 32t-32 75zM408 560h450l-224 704h-2zM718 1773q0 43 32 75t74 32t74 -32t32 -75t-32 -75t-74 -32t-74 32t-32 75z"/>
            <glyph unicode="&#x4d3;"
                   d="M194 304q0 142 97 223.5t276 89.5l312 14v102q0 116 -65 177.5t-189 61.5q-102 0 -170 -42t-90 -120h-130q15 121 124.5 198.5t265.5 77.5q183 0 284.5 -91.5t101.5 -255.5v-740h-126v170h-14q-38 -91 -124.5 -139.5t-208.5 -48.5q-155 0 -249.5 88.5t-94.5 234.5z M328 1413q0 43 32 75t74 32t74 -32t32 -75t-32 -75t-74 -32t-74 32t-32 75zM329 304q0 -96 64.5 -151.5t176.5 -55.5q131 0 220 79.5t89 195.5v150l-303 -13q-121 -5 -184 -57.5t-63 -147.5zM710 1413q0 43 32 75t74 32t74 -32t32 -75t-32 -75t-74 -32t-74 32t-32 75z"/>
            <glyph unicode="&#x4d4;"
                   d="M15 0l463 1443h760v-123h-448v-529h412v-125h-412v-542h448v-124h-574v472h-358l-147 -472h-144zM342 589h322v734h-94z"/>
            <glyph unicode="&#x4d5;"
                   d="M62 280q0 290 296 317l208 20v109q0 113 -51.5 178.5t-140.5 65.5q-65 0 -110.5 -42t-53.5 -109h-118q13 118 95 191.5t202 73.5q86 0 155.5 -52t97.5 -138h4q87 190 251 190q155 0 237.5 -136.5t82.5 -392.5v-47h-526v-20q-2 -185 54 -287.5t159 -102.5q72 0 118 38 t75 121h108q-58 -277 -305 -277q-91 0 -163 64t-107 174h-4q-38 -110 -118 -174t-181 -64q-116 0 -190.5 84.5t-74.5 215.5zM190 292q0 -195 164 -195q92 0 152 76.5t60 193.5v141l-189 -17q-91 -7 -139 -58.5t-48 -140.5zM693 615h395q-3 355 -194 355q-88 0 -139.5 -91.5 t-61.5 -263.5z"/>
            <glyph unicode="&#x4d6;"
                   d="M242 0v1443h830v-124h-693v-519h656v-122h-656v-554h693v-124h-830zM337 1914h120q0 -91 55 -148.5t141 -57.5t141 57.5t55 148.5h120q0 -133 -87.5 -215.5t-228.5 -82.5t-228.5 82.5t-87.5 215.5z"/>
            <glyph unicode="&#x4d7;"
                   d="M201 468v157q0 213 121.5 341.5t321.5 128.5q209 0 323 -132.5t114 -373.5v-85h-749v-37q0 -169 88.5 -268.5t238.5 -99.5q110 0 186 44t101 123h130q-27 -129 -140.5 -206.5t-276.5 -77.5q-217 0 -337.5 128t-120.5 358zM317 1556h120q0 -91 55 -148.5t141 -57.5 t141 57.5t55 148.5h120q0 -133 -87.5 -215.5t-228.5 -82.5t-228.5 82.5t-87.5 215.5zM332 612h616q0 172 -81 269.5t-223 97.5q-146 0 -229 -97.5t-83 -269.5z"/>
            <glyph unicode="&#x4d8;"
                   d="M100 621v150h928v31q0 267 -106.5 405.5t-299.5 138.5q-154 0 -254 -89.5t-130 -254.5h-138q27 218 167.5 344.5t354.5 126.5q263 0 403.5 -180.5t140.5 -510.5v-77q0 -358 -133.5 -546t-400.5 -188q-102 0 -188.5 33.5t-149.5 93.5t-107 141.5t-65.5 178t-21.5 203.5z M235 624q0 -239 107.5 -383t289.5 -144q195 0 295.5 139.5t100.5 397.5v13h-793v-23z"/>
            <glyph unicode="&#x4d9;"
                   d="M201 488v85h749v37q0 169 -88.5 268.5t-238.5 99.5q-110 0 -186 -44t-101 -123h-130q27 129 140.5 206.5t276.5 77.5q217 0 337.5 -128t120.5 -358v-157q0 -213 -121.5 -341.5t-321.5 -128.5q-209 0 -323 132.5t-114 373.5zM334 465q0 -172 81 -269.5t223 -97.5 q146 0 229 97.5t83 269.5h-616z"/>
            <glyph unicode="&#x4da;"
                   d="M100 621v150h928v31q0 267 -106.5 405.5t-299.5 138.5q-154 0 -254 -89.5t-130 -254.5h-138q27 218 167.5 344.5t354.5 126.5q263 0 403.5 -180.5t140.5 -510.5v-77q0 -358 -133.5 -546t-400.5 -188q-102 0 -188.5 33.5t-149.5 93.5t-107 141.5t-65.5 178t-21.5 203.5z M235 624q0 -239 107.5 -383t289.5 -144q195 0 295.5 139.5t100.5 397.5v13h-793v-23zM311 1773q0 43 32 75t74 32t74 -32t32 -75t-32 -75t-74 -32t-74 32t-32 75zM693 1773q0 43 32 75t74 32t74 -32t32 -75t-32 -75t-74 -32t-74 32t-32 75z"/>
            <glyph unicode="&#x4db;"
                   d="M201 488v85h749v37q0 169 -88.5 268.5t-238.5 99.5q-110 0 -186 -44t-101 -123h-130q27 129 140.5 206.5t276.5 77.5q217 0 337.5 -128t120.5 -358v-157q0 -213 -121.5 -341.5t-321.5 -128.5q-209 0 -323 132.5t-114 373.5zM317 1436q0 43 32 75t74 32t74 -32t32 -75 t-32 -75t-74 -32t-74 32t-32 75zM334 465q0 -172 81 -269.5t223 -97.5q146 0 229 97.5t83 269.5h-616zM699 1436q0 43 32 75t74 32t74 -32t32 -75t-32 -75t-74 -32t-74 32t-32 75z"/>
            <glyph unicode="&#x4dc;"
                   d="M0 0l415 742l-376 701h142l333 -652h57v652h122v-652h57l332 652h140l-374 -698l418 -745h-142l-374 685h-57v-685h-122v685h-57l-374 -685h-140zM336 1773q0 43 32 75t74 32t74 -32t32 -75t-32 -75t-74 -32t-74 32t-32 75zM718 1773q0 43 32 75t74 32t74 -32t32 -75 t-32 -75t-74 -32t-74 32t-32 75z"/>
            <glyph unicode="&#x4dd;"
                   d="M-10 0l420 559l-400 518h157l339 -474h68v474h118v-474h68l339 474h157l-400 -518l420 -559h-163l-352 502h-69v-502h-118v502h-69l-352 -502h-163zM335 1437q0 43 32 75t74 32t74 -32t32 -75t-32 -75t-74 -32t-74 32t-32 75zM717 1437q0 43 32 75t74 32t74 -32t32 -75 t-32 -75t-74 -32t-74 32t-32 75z"/>
            <glyph unicode="&#x4de;"
                   d="M110 369h133q8 -121 115.5 -198.5t267.5 -77.5q168 0 274 84t106 216q0 136 -103.5 212t-288.5 76h-193v122h188q148 0 239.5 77.5t91.5 202.5q0 122 -88.5 195t-235.5 73q-145 0 -237.5 -73t-103.5 -195h-134q13 178 143.5 284t336.5 106q199 0 328 -107t129 -272 q0 -125 -75.5 -216.5t-202.5 -119.5v-12q158 -14 252 -110.5t94 -245.5q0 -179 -149 -299.5t-370 -120.5q-220 0 -365 112t-152 287zM311 1773q0 43 32 75t74 32t74 -32t32 -75t-32 -75t-74 -32t-74 32t-32 75zM693 1773q0 43 32 75t74 32t74 -32t32 -75t-32 -75t-74 -32 t-74 32t-32 75z"/>
            <glyph unicode="&#x4df;"
                   d="M203 275h135q19 -85 94.5 -133.5t189.5 -48.5q130 0 209.5 57.5t79.5 150.5q0 97 -75.5 149t-217.5 52h-148v112h152q116 0 182.5 49.5t66.5 134.5t-66.5 134.5t-182.5 49.5q-109 0 -181.5 -49t-88.5 -133h-130q20 136 128 215.5t272 79.5q172 0 275 -78.5t103 -208.5 q0 -83 -59 -150t-148 -86v-12q115 -20 181.5 -88t66.5 -164q0 -146 -116 -236.5t-303 -90.5q-173 0 -286.5 80t-132.5 214zM317 1437q0 43 32 75t74 32t74 -32t32 -75t-32 -75t-74 -32t-74 32t-32 75zM699 1437q0 43 32 75t74 32t74 -32t32 -75t-32 -75t-74 -32t-74 32 t-32 75z"/>
            <glyph unicode="&#x4e0;"
                   d="M155 329h126q12 -102 108 -170.5t244 -68.5q157 0 247 88t90 250q0 156 -106.5 236t-315.5 80h-98v115l397 452v8h-648v124h836v-103l-421 -477v-8q225 -13 356.5 -125t131.5 -300q0 -213 -128.5 -336.5t-343.5 -123.5q-198 0 -329 99t-146 260z"/>
            <glyph unicode="&#x4e1;"
                   d="M155 14h125q8 -129 103 -210.5t240 -81.5q148 0 238.5 95.5t90.5 239.5q0 328 -417 328h-120v100l423 475v6h-649v111h829v-81l-447 -502v-7q110 -2 201.5 -29t161.5 -78.5t109 -134t39 -188.5q0 -189 -125.5 -312.5t-334.5 -123.5q-202 0 -328 107.5t-139 285.5z"/>
            <glyph unicode="&#x4e2;"
                   d="M162 0v1443h124v-1198h13l670 1198h135v-1443h-124v1199h-13l-673 -1199h-132zM304 1711v118h638v-118h-638z"/>
            <glyph unicode="&#x4e3;"
                   d="M199 0v1077h128v-869h13l598 869h128v-1077h-128v869h-12l-599 -869h-128zM329 1377v118h638v-118h-638z"/>
            <glyph unicode="&#x4e4;"
                   d="M162 0v1443h124v-1198h13l670 1198h135v-1443h-124v1199h-13l-673 -1199h-132zM327 1773q0 43 32 75t74 32t74 -32t32 -75t-32 -75t-74 -32t-74 32t-32 75zM709 1773q0 43 32 75t74 32t74 -32t32 -75t-32 -75t-74 -32t-74 32t-32 75z"/>
            <glyph unicode="&#x4e5;"
                   d="M199 0v1077h128v-869h13l598 869h128v-1077h-128v869h-12l-599 -869h-128zM330 1413q0 43 32 75t74 32t74 -32t32 -75t-32 -75t-74 -32t-74 32t-32 75zM712 1413q0 43 32 75t74 32t74 -32t32 -75t-32 -75t-74 -32t-74 32t-32 75z"/>
            <glyph unicode="&#x4e6;"
                   d="M114 602v239q0 297 138.5 464.5t380.5 167.5t380.5 -167.5t138.5 -464.5v-239q0 -297 -138.5 -464.5t-380.5 -167.5t-380.5 167.5t-138.5 464.5zM251 602q0 -239 102 -372t280 -133t280 133t102 372v239q0 239 -102 372t-280 133t-280 -133t-102 -372v-239zM336 1773 q0 43 32 75t74 32t74 -32t32 -75t-32 -75t-74 -32t-74 32t-32 75zM718 1773q0 43 32 75t74 32t74 -32t32 -75t-32 -75t-74 -32t-74 32t-32 75z"/>
            <glyph unicode="&#x4e7;"
                   d="M177 458v160q0 218 124 347t332 129t332 -129t124 -347v-160q0 -218 -124 -347t-332 -129t-332 129t-124 347zM308 475q0 -174 87.5 -275t237.5 -101t237.5 101t87.5 275v126q0 174 -87.5 275t-237.5 101t-237.5 -101t-87.5 -275v-126zM335 1437q0 43 32 75t74 32t74 -32 t32 -75t-32 -75t-74 -32t-74 32t-32 75zM717 1437q0 43 32 75t74 32t74 -32t32 -75t-32 -75t-74 -32t-74 32t-32 75z"/>
            <glyph unicode="&#x4e8;"
                   d="M114 602v239q0 297 138.5 464.5t380.5 167.5t380.5 -167.5t138.5 -464.5v-239q0 -297 -138.5 -464.5t-380.5 -167.5t-380.5 167.5t-138.5 464.5zM251 602q0 -239 102 -372t280 -133t280 133t102 372v72h-764v-72zM251 798h764v43q0 239 -102 372t-280 133t-280 -133 t-102 -372v-43z"/>
            <glyph unicode="&#x4e9;"
                   d="M177 458v160q0 218 124 347t332 129t332 -129t124 -347v-160q0 -218 -124 -347t-332 -129t-332 129t-124 347zM308 475q0 -174 87.5 -275t237.5 -101t237.5 101t87.5 275v18h-650v-18zM308 604h650q-1 173 -88.5 273t-236.5 100t-236.5 -100t-88.5 -273z"/>
            <glyph unicode="&#x4ea;"
                   d="M114 602v239q0 297 138.5 464.5t380.5 167.5t380.5 -167.5t138.5 -464.5v-239q0 -297 -138.5 -464.5t-380.5 -167.5t-380.5 167.5t-138.5 464.5zM251 602q0 -239 102 -372t280 -133t280 133t102 372v72h-764v-72zM251 798h764v43q0 239 -102 372t-280 133t-280 -133 t-102 -372v-43zM318 1773q0 43 32 75t74 32t74 -32t32 -75t-32 -75t-74 -32t-74 32t-32 75zM700 1773q0 43 32 75t74 32t74 -32t32 -75t-32 -75t-74 -32t-74 32t-32 75z"/>
            <glyph unicode="&#x4eb;"
                   d="M177 458v160q0 218 124 347t332 129t332 -129t124 -347v-160q0 -218 -124 -347t-332 -129t-332 129t-124 347zM308 475q0 -174 87.5 -275t237.5 -101t237.5 101t87.5 275v18h-650v-18zM308 604h650q-1 173 -88.5 273t-236.5 100t-236.5 -100t-88.5 -273zM334 1437 q0 43 32 75t74 32t74 -32t32 -75t-32 -75t-74 -32t-74 32t-32 75zM716 1437q0 43 32 75t74 32t74 -32t32 -75t-32 -75t-74 -32t-74 32t-32 75z"/>
            <glyph unicode="&#x4ec;"
                   d="M87 411h138q29 -153 127 -233.5t257 -80.5q197 0 302.5 146.5t116.5 433.5h-593v124h591q-16 271 -121 408t-296 137q-154 0 -254 -89.5t-130 -254.5h-138q27 218 167.5 344.5t354.5 126.5q271 0 415.5 -194t144.5 -557t-144.5 -557t-415.5 -194q-221 0 -357.5 115 t-164.5 325zM310 1775q0 43 32 75t74 32t74 -32t32 -75t-32 -75t-74 -32t-74 32t-32 75zM692 1775q0 43 32 75t74 32t74 -32t32 -75t-32 -75t-74 -32t-74 32t-32 75z"/>
            <glyph unicode="&#x4ed;"
                   d="M168 759q24 144 143 240t302 96q222 0 353.5 -150t131.5 -401q0 -258 -131.5 -410.5t-353.5 -152.5q-185 0 -302 91t-142 237h133q24 -96 105.5 -152.5t205.5 -56.5q153 0 248.5 109t103.5 292h-530v112h528q-13 166 -108.5 264.5t-241.5 98.5q-123 0 -205.5 -61 t-106.5 -156h-133zM324 1435q0 43 32 75t74 32t74 -32t32 -75t-32 -75t-74 -32t-74 32t-32 75zM706 1435q0 43 32 75t74 32t74 -32t32 -75t-32 -75t-74 -32t-74 32t-32 75z"/>
            <glyph unicode="&#x4ee;"
                   d="M77 1443h148l412 -965h12l397 965h142l-447 -1044q-100 -232 -190.5 -320.5t-229.5 -88.5q-50 0 -74 12v124q36 -9 74 -9q78 0 137 49t113 158zM320 1714v118h638v-118h-638z"/>
            <glyph unicode="&#x4ef;"
                   d="M159 1077h142l326 -934h12l325 934h140l-419 -1129q-72 -194 -144 -261.5t-204 -67.5q-27 0 -61 4v114q20 -4 59 -4q74 0 120 43t86 150l22 67zM315 1377v118h638v-118h-638z"/>
            <glyph unicode="&#x4f0;"
                   d="M77 1443h148l412 -965h12l397 965h142l-447 -1044q-100 -232 -190.5 -320.5t-229.5 -88.5q-50 0 -74 12v124q36 -9 74 -9q78 0 137 49t113 158zM342 1772q0 43 32 75t74 32t74 -32t32 -75t-32 -75t-74 -32t-74 32t-32 75zM724 1772q0 43 32 75t74 32t74 -32t32 -75 t-32 -75t-74 -32t-74 32t-32 75z"/>
            <glyph unicode="&#x4f1;"
                   d="M159 1077h142l326 -934h12l325 934h140l-419 -1129q-72 -194 -144 -261.5t-204 -67.5q-27 0 -61 4v114q20 -4 59 -4q74 0 120 43t86 150l22 67zM331 1437q0 43 32 75t74 32t74 -32t32 -75t-32 -75t-74 -32t-74 32t-32 75zM713 1437q0 43 32 75t74 32t74 -32t32 -75 t-32 -75t-74 -32t-74 32t-32 75z"/>
            <glyph unicode="&#x4f2;"
                   d="M77 1443h148l412 -965h12l397 965h142l-447 -1044q-100 -232 -190.5 -320.5t-229.5 -88.5q-50 0 -74 12v124q36 -9 74 -9q78 0 137 49t113 158zM379 1618l310 297h174l-326 -297h-158zM743 1618l310 297h174l-326 -297h-158z"/>
            <glyph unicode="&#x4f3;"
                   d="M159 1077h142l326 -934h12l325 934h140l-419 -1129q-72 -194 -144 -261.5t-204 -67.5q-27 0 -61 4v114q20 -4 59 -4q74 0 120 43t86 150l22 67zM361 1296l238 332h172l-259 -332h-151zM737 1296l238 332h172l-259 -332h-151z"/>
            <glyph unicode="&#x4f4;"
                   d="M109 1041v402h137v-392q0 -172 99.5 -271.5t263.5 -99.5q225 0 361 125v638h136v-1443h-136v662h-11q-135 -109 -351 -109q-227 0 -363 135.5t-136 352.5zM315 1773q0 43 32 75t74 32t74 -32t32 -75t-32 -75t-74 -32t-74 32t-32 75zM697 1773q0 43 32 75t74 32t74 -32 t32 -75t-32 -75t-74 -32t-74 32t-32 75z"/>
            <glyph unicode="&#x4f5;"
                   d="M181 779v298h131v-293q0 -129 69.5 -201t195.5 -72q99 0 186 41t132 108v417h131v-1077h-131v509h-14q-124 -116 -309 -116q-183 0 -287 103t-104 283zM327 1437q0 43 32 75t74 32t74 -32t32 -75t-32 -75t-74 -32t-74 32t-32 75zM709 1437q0 43 32 75t74 32t74 -32 t32 -75t-32 -75t-74 -32t-74 32t-32 75z"/>
            <glyph unicode="&#x4f6;"
                   d="M92 0v118h295v1207h-295v118h1138v-403h-128v285h-579v-1207h345v-404h-128v286h-648z"/>
            <glyph unicode="&#x4f7;"
                   d="M159 0v111h210v855h-210v111h950v-344h-126v233h-483v-855h280v-396h-121v285h-500z"/>
            <glyph unicode="&#x4f8;"
                   d="M119 0v1443h137v-559h155q206 0 332 -121.5t126 -320.5t-126 -320.5t-332 -121.5h-292zM256 123h122q166 0 259 84.5t93 234.5t-93 234.5t-259 84.5h-122v-638zM326 1716q0 43 32 75t74 32t74 -32t32 -75t-32 -75t-74 -32t-74 32t-32 75zM708 1716q0 43 32 75t74 32 t74 -32t32 -75t-32 -75t-74 -32t-74 32t-32 75zM1011 0v1443h136v-1443h-136z"/>
            <glyph unicode="&#x4f9;"
                   d="M134 0v1077h131v-365h220q170 0 270 -96.5t100 -259.5t-100 -259.5t-270 -96.5h-351zM265 111h218q109 0 175 67t66 177t-66 177t-175 67h-218v-488zM323 1413q0 43 32 75t74 32t74 -32t32 -75t-32 -75t-74 -32t-74 32t-32 75zM705 1413q0 43 32 75t74 32t74 -32t32 -75 t-32 -75t-74 -32t-74 32t-32 75zM1001 0v1077h131v-1077h-131z"/>
            <glyph unicode="&#x4fa;"
                   d="M90 -203q28 -3 104 -3q157 0 157 206v681h-259v124h259v514h-259v124h1138v-403h-128v278h-612v-513h374v-124h-374v-681q0 -91 -25 -158t-67 -103t-90 -52.5t-102 -16.5q-68 0 -116 6v121z"/>
            <glyph unicode="&#x4fb;"
                   d="M58 -194q110 -10 132 -10q104 0 141.5 43.5t37.5 160.5v450h-211v111h211v405h-210v111h950v-344h-126v233h-483v-405h359v-111h-359v-462q0 -160 -72.5 -231.5t-234.5 -71.5q-8 0 -135 11v110z"/>
            <glyph unicode="&#x4fc;"
                   d="M86 0l469 724l-465 719h158l389 -609h5l393 609h145l-473 -724l263 -408q111 -172 140 -228q55 -108 55 -196q0 -123 -81 -202t-206 -79q-40 0 -68 6v123q20 -5 68 -5q65 0 109.5 41t44.5 108q0 18 -2 35t-8.5 37t-10.5 33.5t-16.5 37.5t-18.5 36t-24 41t-24.5 39.5 t-29.5 46t-30 46.5l-240 375h-5l-392 -606h-145z"/>
            <glyph unicode="&#x4fd;"
                   d="M179 1077h158l293 -430h12l291 430h151l-378 -530l181 -256q89 -127 123 -203.5t34 -167.5q0 -128 -80.5 -208.5t-208.5 -80.5q-47 0 -69 7v110q16 -6 55 -6q86 0 131.5 47t45.5 130q0 53 -23 111t-85 151l-172 259h-12l-294 -440h-150l380 542z"/>
            <glyph unicode="&#x4fe;"
                   d="M86 0l431 666h-378v118h377l-426 659h158l389 -609h5l393 609h145l-431 -659h373v-118h-381l431 -666h-157l-387 606h-5l-392 -606h-145z"/>
            <glyph unicode="&#x4ff;"
                   d="M179 1077h158l293 -430h12l291 430h151l-333 -467h296v-111h-307l348 -499h-157l-293 440h-12l-294 -440h-150l350 499h-312v111h293z"/>
            <glyph unicode="&#x2000;" horiz-adv-x="957"/>
            <glyph unicode="&#x2001;" horiz-adv-x="1915"/>
            <glyph unicode="&#x2002;" horiz-adv-x="957"/>
            <glyph unicode="&#x2003;" horiz-adv-x="1915"/>
            <glyph unicode="&#x2004;" horiz-adv-x="638"/>
            <glyph unicode="&#x2005;" horiz-adv-x="478"/>
            <glyph unicode="&#x2006;" horiz-adv-x="319"/>
            <glyph unicode="&#x2007;" horiz-adv-x="319"/>
            <glyph unicode="&#x2008;" horiz-adv-x="239"/>
            <glyph unicode="&#x2009;" horiz-adv-x="383"/>
            <glyph unicode="&#x200a;" horiz-adv-x="106"/>
            <glyph unicode="&#x2010;" d="M104 581v116h1058v-116h-1058z"/>
            <glyph unicode="&#x2011;" d="M104 581v116h1058v-116h-1058z"/>
            <glyph unicode="&#x2012;" d="M104 581v116h1058v-116h-1058z"/>
            <glyph unicode="&#x2013;" d="M0 581v116h1266v-116h-1266z"/>
            <glyph unicode="&#x2014;" d="M0 581v116h1266v-116h-1266z"/>
            <glyph unicode="&#x2018;" d="M480 820l190 623h116l-162 -623h-144z"/>
            <glyph unicode="&#x2019;" d="M480 820l162 623h144l-190 -623h-116z"/>
            <glyph unicode="&#x201a;" d="M480 -466l162 623h144l-190 -623h-116z"/>
            <glyph unicode="&#x201c;" d="M302 820l190 623h116l-162 -623h-144zM658 820l190 623h116l-162 -623h-144z"/>
            <glyph unicode="&#x201d;" d="M292 820l162 623h144l-190 -623h-116zM648 820l162 623h144l-190 -623h-116z"/>
            <glyph unicode="&#x201e;" d="M292 -468l162 623h144l-190 -623h-116zM648 -468l162 623h144l-190 -623h-116z"/>
            <glyph unicode="&#x2026;"
                   d="M118 163q0 77 29.5 120t83.5 43t83.5 -43t29.5 -120t-29.5 -120t-83.5 -43t-83.5 43t-29.5 120zM520 163q0 77 29.5 120t83.5 43t83.5 -43t29.5 -120t-29.5 -120t-83.5 -43t-83.5 43t-29.5 120zM922 163q0 77 29.5 120t83.5 43t83.5 -43t29.5 -120t-29.5 -120t-83.5 -43 t-83.5 43t-29.5 120z"/>
            <glyph unicode="&#x202f;" horiz-adv-x="383"/>
            <glyph unicode="&#x2039;" d="M384 638v2l353 421h145l-353 -421v-2l353 -421h-145z"/>
            <glyph unicode="&#x203a;" d="M384 217l353 421v2l-353 421h145l353 -421v-2l-353 -421h-145z"/>
            <glyph unicode="&#x205f;" horiz-adv-x="478"/>
            <glyph unicode="&#x20ac;"
                   d="M99 515v106h218q-5 45 -5 101q0 60 4 99h-217v105h233q53 265 238 402.5t490 137.5q71 0 124 -8v-125q-39 6 -124 6q-238 0 -385 -104t-197 -309h556v-105h-577q-5 -60 -5 -99q0 -41 5 -101h577v-106h-557q52 -203 199 -307t384 -104q76 0 128 7v-125q-54 -8 -128 -8 q-304 0 -489 136.5t-239 400.5h-233z"/>
            <glyph unicode="&#x2122;"
                   d="M25 1286v117h452v-117h-169v-710h-114v710h-169zM550 576v827h158l143 -621h21l143 621h158v-827h-101v596h-21l-143 -570h-93l-143 570h-21v-596h-101z"/>
            <glyph unicode="&#x25fc;" horiz-adv-x="1075" d="M0 0v1075h1075v-1075h-1075z"/>
        </font>
</defs>
</svg>
